<svg width="25" height="23" viewBox="0 0 25 25" fill="none" xmlns="http://www.w3.org/2000/svg">
<g clip-path="url(#clip0_464_1173)">
<path d="M12.5 1.38867C10.3024 1.38867 8.15421 2.04033 6.327 3.26123C4.49979 4.48214 3.07565 6.21745 2.23467 8.24775C1.3937 10.278 1.17366 12.5121 1.60239 14.6675C2.03111 16.8228 3.08934 18.8026 4.64326 20.3565C6.19718 21.9104 8.17699 22.9687 10.3323 23.3974C12.4877 23.8261 14.7218 23.6061 16.752 22.7651C18.7823 21.9241 20.5177 20.5 21.7386 18.6728C22.9595 16.8456 23.6111 14.6974 23.6111 12.4998C23.6111 9.55293 22.4405 6.72678 20.3567 4.64304C18.273 2.5593 15.4469 1.38867 12.5 1.38867ZM12.5 22.222C10.5771 22.222 8.69744 21.6518 7.09862 20.5835C5.49981 19.5152 4.25369 17.9968 3.51784 16.2203C2.78199 14.4438 2.58946 12.489 2.96459 10.6031C3.33972 8.71715 4.26568 6.98481 5.62535 5.62513C6.98503 4.26546 8.71736 3.3395 10.6033 2.96437C12.4892 2.58924 14.444 2.78177 16.2205 3.51762C17.997 4.25347 19.5154 5.49959 20.5837 7.09841C21.652 8.69722 22.2222 10.5769 22.2222 12.4998C22.2222 15.0783 21.1979 17.5512 19.3747 19.3744C17.5514 21.1977 15.0785 22.222 12.5 22.222Z" fill="#FFD233"/>
<path d="M13.1389 12.7779V7.46544C13.1389 7.28126 13.0657 7.10463 12.9355 6.97439C12.8053 6.84416 12.6286 6.771 12.4444 6.771C12.2603 6.771 12.0836 6.84416 11.9534 6.97439C11.8232 7.10463 11.75 7.28126 11.75 7.46544V13.521L15.8472 16.2988C15.9227 16.3555 16.009 16.3963 16.1007 16.4186C16.1925 16.4409 16.2878 16.4442 16.381 16.4284C16.4741 16.4126 16.563 16.378 16.6422 16.3266C16.7215 16.2753 16.7894 16.2083 16.8419 16.1298C16.8944 16.0513 16.9304 15.9629 16.9475 15.87C16.9647 15.7772 16.9627 15.6818 16.9418 15.5897C16.9208 15.4976 16.8813 15.4108 16.8257 15.3345C16.77 15.2582 16.6994 15.1941 16.6181 15.146L13.1389 12.7779Z" fill="#FFD233"/>
<path d="M5.55556 12.4582C5.54921 11.2089 5.88201 9.98133 6.5185 8.90633C7.15498 7.83133 8.07127 6.94921 9.16968 6.35403C10.2681 5.75886 11.5074 5.47293 12.7556 5.52674C14.0037 5.58055 15.2138 5.97208 16.2569 6.65959L16.8472 5.71514C15.8564 5.06611 14.7342 4.64458 13.5611 4.48083C12.388 4.31708 11.1932 4.41517 10.0625 4.76806C8.93186 5.12094 7.89338 5.71987 7.02169 6.5218C6.15 7.32374 5.46674 8.30878 5.021 9.40617C4.57525 10.5035 4.37808 11.686 4.44365 12.8687C4.50922 14.0513 4.83591 15.2048 5.40024 16.2461C5.96457 17.2875 6.75254 18.191 7.70754 18.8916C8.66254 19.5923 9.76086 20.0727 10.9236 20.2985L11.1111 19.236C9.54721 18.9168 8.14101 18.0686 7.12917 16.8341C6.11733 15.5997 5.56162 14.0543 5.55556 12.4582Z" fill="#FFD233"/>
</g>
<defs>
<clipPath id="clip0_464_1173">
<rect width="25" height="25" fill="white"/>
</clipPath>
</defs>
</svg>
