<svg width="24" height="24" viewBox="0 0 24 24" fill="none" xmlns="http://www.w3.org/2000/svg">
<path opacity="0.4" d="M13.5645 4.65869V4.87834C12.9757 4.86678 12.3869 4.86678 11.7981 4.86678V4.67025C11.7981 3.87258 11.1268 3.22519 10.326 3.22519H9.1602C7.8295 3.22519 6.74609 2.16163 6.74609 0.866853C6.74609 0.392873 7.14648 -0.000183105 7.6293 -0.000183105C8.1239 -0.000183105 8.51252 0.392873 8.51252 0.866853C8.51252 1.21367 8.80692 1.49112 9.1602 1.49112H10.326C12.1042 1.50268 13.5527 2.92462 13.5645 4.65869Z" fill="#EA6A12"/>
<path fill-rule="evenodd" clip-rule="evenodd" d="M15.7967 4.89958C16.1748 4.90477 16.5538 4.90997 16.9341 4.91386C21.0204 4.91386 23.9998 7.8271 23.9998 11.8501V17.0177C23.9998 21.0407 21.0204 23.954 16.9341 23.954C15.2972 23.9886 13.6603 24.0002 12.0117 24.0002C10.363 24.0002 8.70257 23.9886 7.06569 23.954C2.97936 23.954 0 21.0407 0 17.0177V11.8501C0 7.8271 2.97936 4.91386 7.07746 4.91386C8.62014 4.89074 10.1981 4.86761 11.7997 4.86761C12.3885 4.86761 12.9773 4.86761 13.5661 4.87918C14.3085 4.87918 15.0508 4.88936 15.7967 4.89958ZM11.1343 15.799H9.89784V17.0244C9.89784 17.4984 9.49745 17.8914 9.01463 17.8914C8.52003 17.8914 8.13142 17.4984 8.13142 17.0244V15.799H6.88314C6.40032 15.799 5.99993 15.4175 5.99993 14.932C5.99993 14.458 6.40032 14.0649 6.88314 14.0649H8.13142V12.8511C8.13142 12.3771 8.52003 11.984 9.01463 11.984C9.49745 11.984 9.89784 12.3771 9.89784 12.8511V14.0649H11.1343C11.6172 14.0649 12.0175 14.458 12.0175 14.932C12.0175 15.4175 11.6172 15.799 11.1343 15.799ZM16.1371 13.847H16.2548C16.7376 13.847 17.138 13.4655 17.138 12.98C17.138 12.506 16.7376 12.1129 16.2548 12.1129H16.1371C15.6425 12.1129 15.2538 12.506 15.2538 12.98C15.2538 13.4655 15.6425 13.847 16.1371 13.847ZM18.1527 17.8236H18.2704C18.7533 17.8236 19.1536 17.4421 19.1536 16.9565C19.1536 16.4826 18.7533 16.0895 18.2704 16.0895H18.1527C17.6581 16.0895 17.2695 16.4826 17.2695 16.9565C17.2695 17.4421 17.6581 17.8236 18.1527 17.8236Z" fill="#EA6A12"/>
</svg>
