<svg width="25" height="26" viewBox="0 0 25 26" fill="none" xmlns="http://www.w3.org/2000/svg">
<path d="M23.368 9.94555L15.702 2.02591C14.7532 1.04873 13.468 0.5 12.1282 0.5C10.7884 0.5 9.50323 1.04873 8.55444 2.02591L0.888403 9.94555C0.605842 10.2356 0.381818 10.5806 0.229319 10.9607C0.0768193 11.3408 -0.00112226 11.7484 1.22085e-05 12.1598V22.4086C1.22085e-05 23.2392 0.31946 24.0359 0.888079 24.6232C1.4567 25.2106 2.22791 25.5405 3.03206 25.5405H21.2244C22.0285 25.5405 22.7997 25.2106 23.3684 24.6232C23.937 24.0359 24.2564 23.2392 24.2564 22.4086V12.1598C24.2576 11.7484 24.1796 11.3408 24.0271 10.9607C23.8746 10.5806 23.6506 10.2356 23.368 9.94555ZM15.1603 23.4526H9.09617V19.3456C9.09617 18.5149 9.41561 17.7183 9.98423 17.1309C10.5529 16.5436 11.3241 16.2136 12.1282 16.2136C12.9324 16.2136 13.7036 16.5436 14.2722 17.1309C14.8408 17.7183 15.1603 18.5149 15.1603 19.3456V23.4526ZM22.2351 22.4086C22.2351 22.6855 22.1286 22.951 21.939 23.1468C21.7495 23.3426 21.4924 23.4526 21.2244 23.4526H17.1816V19.3456C17.1816 17.9612 16.6492 16.6335 15.7015 15.6545C14.7538 14.6756 13.4685 14.1257 12.1282 14.1257C10.788 14.1257 9.50261 14.6756 8.55491 15.6545C7.60721 16.6335 7.0748 17.9612 7.0748 19.3456V23.4526H3.03206C2.76401 23.4526 2.50694 23.3426 2.3174 23.1468C2.12786 22.951 2.02138 22.6855 2.02138 22.4086V12.1598C2.02232 11.8832 2.1287 11.618 2.31751 11.4217L9.98355 3.50523C10.5533 2.91948 11.3244 2.59064 12.1282 2.59064C12.932 2.59064 13.7032 2.91948 14.2729 3.50523L21.9389 11.4249C22.127 11.6204 22.2333 11.8842 22.2351 12.1598V22.4086Z" fill="#EA6A12"/>
</svg>
