<svg width="35" height="38" viewBox="0 0 35 38" fill="none" xmlns="http://www.w3.org/2000/svg">
<path d="M28.1667 11.5122L29.655 7.78408L32.9167 6.10912L29.655 4.43417L28.1667 0.706055L26.71 4.43417L23.4167 6.10912L26.71 7.78408L28.1667 11.5122ZM9.95833 15.1142L10.75 11.5122L13.9167 10.6117L10.75 9.71117L9.95833 6.10912L9.16667 9.71117L6 10.6117L9.16667 11.5122L9.95833 15.1142Z" fill="#FFD233"/>
<path d="M31.6667 15.5303C29.3708 15.5303 28.0883 18.1237 28.6108 20.0508L22.99 26.4625C22.515 26.3004 21.8183 26.3004 21.3433 26.4625L17.3058 21.8699C17.8442 19.9428 16.5617 17.3313 14.25 17.3313C11.9542 17.3313 10.6558 19.9248 11.1942 21.8699L3.97417 30.0645C2.28 29.4702 0 30.929 0 33.5405C0 35.5216 1.425 37.1426 3.16667 37.1426C5.4625 37.1426 6.745 34.5491 6.2225 32.622L13.4267 24.4093C13.9017 24.5714 14.5983 24.5714 15.0733 24.4093L19.1108 29.0019C18.5725 30.929 19.855 33.5405 22.1667 33.5405C24.4625 33.5405 25.7608 30.947 25.2225 29.0019L30.8592 22.6083C32.5533 23.2026 34.8333 21.7438 34.8333 19.1323C34.8333 17.1512 33.4083 15.5303 31.6667 15.5303Z" fill="#FFD233"/>
</svg>
