<svg width="207" height="192" viewBox="0 0 207 192" fill="none" xmlns="http://www.w3.org/2000/svg">
<path fill-rule="evenodd" clip-rule="evenodd" d="M0 0H103.5H207V192H0V0ZM35.7846 71.301C35.7846 71.5806 36.7205 72.4194 37.8766 73.1651C38.9777 74.0039 40.0787 74.5631 40.354 74.5631C40.5742 74.5631 40.7394 73.7243 40.7394 72.699C40.7394 71.1146 40.354 70.835 38.262 70.835C36.8856 70.835 35.7846 71.0214 35.7846 71.301ZM50.759 83.5107C50.6489 84.5359 50.9793 85.934 51.4747 86.6796C52.2455 87.8913 52.3556 87.8913 52.4657 86.1204C52.5208 85.0019 52.1904 83.6039 51.75 82.9515C51.0343 82.0194 50.8692 82.1126 50.759 83.5107Z" fill="#FFFEFE"/>
<path d="M30.8542 92.565C30.7867 74.0524 30.8542 72.3398 32.0026 70.9534C33.0159 69.7301 34.367 69.4854 40.0415 69.4854C45.6484 69.4038 47.1346 69.6485 48.3505 70.8718C49.2287 71.7689 50.9851 76.499 53.0792 83.5941C54.8356 89.7922 56.4569 94.8485 56.6596 94.767C56.8622 94.767 58.3484 89.9553 60.0372 84.0019C61.726 78.0485 63.6175 72.3398 64.2931 71.3611C65.3739 69.6485 65.9819 69.4854 72.7372 69.4854C77.8713 69.4038 80.1681 69.7301 80.7085 70.464C81.1138 71.0349 81.9245 73.4815 82.5324 75.8466C83.4106 79.1087 83.6808 83.3495 83.6808 93.9514C83.6808 102.678 83.4106 107.815 83.0053 107.815C82.6 107.815 82.3298 109.12 82.3298 110.67C82.3298 112.219 82.0596 114.258 81.6542 115.155C81.1138 116.46 81.1814 116.786 81.992 116.786C82.5324 116.786 83.1404 117.194 83.3431 117.602C83.5457 118.01 83.1404 119.151 82.5324 120.049C81.6542 121.19 80.5058 121.761 78.6143 121.761C76.7229 121.761 75.3042 121.109 73.8856 119.722C72.7372 118.581 71.3186 117.113 70.6431 116.379C69.7649 115.4 69.4947 113.85 69.4947 109.447V109.447C69.4947 103.819 69.4947 103.738 67.7383 103.982C66.1846 104.146 65.7117 104.88 64.3606 109.447C63.4824 112.382 62.7393 114.829 62.7393 114.992C62.7393 115.074 63.3473 114.992 64.0904 114.748C64.8335 114.503 65.4415 114.503 65.4415 114.748C65.4415 114.992 64.9686 116.46 64.4282 118.01C63.6175 120.212 62.8745 120.946 61.2532 121.353C60.0372 121.68 58.2133 121.68 57.2 121.353C55.5787 120.946 55.4436 120.701 56.1191 119.641C56.8622 118.499 56.7271 118.336 55.1734 118.417C54.0925 118.417 52.5388 117.602 51.6606 116.623C50.6473 115.482 49.0936 111.322 47.5399 105.777C46.1213 100.883 44.6351 96.2349 44.0947 95.5825C43.3516 94.5223 43.2165 95.9903 43.2165 104.798C43.1489 110.507 43.0138 115.726 42.8111 116.379C42.5409 117.276 43.0814 117.683 44.5 118.01C45.6484 118.254 46.5266 118.825 46.5266 119.233C46.5266 119.722 45.851 120.049 45.0404 120.049C44.1622 120.049 41.5276 119.641 39.0957 119.233C36.6638 118.744 32.7457 117.439 30.3138 116.379C27.8819 115.237 24.0989 113.035 21.8697 111.485C19.6404 109.854 16.533 107 14.9117 105.124C13.2904 103.249 11.534 100.72 10.9936 99.4971C10.4532 98.1922 10.0479 96.2349 10.0479 95.0116C10.0479 93.7068 10.3181 92.1572 10.7234 91.5048C11.0611 90.8524 11.3989 90.4446 11.534 90.6893C11.6691 90.9339 12.4122 92.7281 13.2229 94.767C14.101 96.8058 16.3303 100.313 18.2893 102.678C20.2484 104.961 23.6936 108.223 25.9229 109.854C28.1521 111.404 30.1787 112.709 30.4489 112.709C30.7867 112.709 30.9218 103.656 30.8542 92.565Z" fill="#EA6A12"/>
<path d="M121.376 89.0582C121.24 74.5417 121.443 71.2796 122.186 70.464C122.862 69.8116 124.888 69.4854 127.928 69.6485C132.522 69.8932 132.657 69.9747 133.197 72.3398C133.535 73.6446 134.076 75.4388 134.413 76.1728C134.751 76.9883 135.021 78.5378 135.021 79.6796C135.021 81.4738 135.291 81.7184 137.723 81.7184C139.21 81.7184 140.898 82.2893 141.439 82.9417C141.979 83.5941 142.452 85.0621 142.452 86.2038C142.452 87.3456 142.722 88.4058 143.128 88.6504C143.533 88.8951 143.803 90.2815 143.803 91.6679C143.803 93.1359 143.465 94.8485 142.993 95.3378C142.52 95.9087 140.561 96.398 135.021 96.398V107.815H138.737C140.763 107.815 142.925 108.06 143.465 108.386C144.276 108.876 144.411 108.713 144.073 107.408C143.871 106.511 144.006 104.472 144.344 102.922C144.749 101.373 146.168 98.8446 147.451 97.3767C148.802 95.9903 149.883 94.6038 149.883 94.3592C149.883 94.1145 149.41 93.9514 148.87 93.9514C148.329 93.9514 147.383 93.1359 146.843 92.0757C146.032 90.6893 145.965 89.7922 146.573 87.8349C146.978 86.4485 147.789 84.7359 148.397 83.8388C149.005 83.0233 150.558 81.8 151.774 81.2291C152.923 80.5767 156.165 79.8427 158.8 79.598C162.515 79.1903 164.745 79.4349 167.785 80.4951C170.487 81.3922 172.513 82.7786 173.864 84.4912C175.013 85.9592 176.431 89.2213 177.107 91.9126C178.12 95.9087 178.323 99.0893 177.918 121.272L174.743 121.435C172.176 121.598 171.297 121.353 170.689 120.13C169.811 118.581 169.811 118.581 167.312 120.13C165.555 121.19 163.394 121.68 160.556 121.68C157.854 121.68 155.287 121.109 153.598 120.13C152.112 119.315 149.478 117.031 147.721 115.074C145.357 112.382 144.479 111.812 144.479 112.872C144.479 113.687 144.749 114.503 145.154 114.748C145.56 114.992 145.83 116.134 145.83 117.357C145.83 118.662 145.492 120.13 145.019 120.619C144.546 121.19 142.925 121.68 141.304 121.68C139.547 121.68 138.331 121.272 138.129 120.619C137.994 120.049 136.102 119.396 133.738 118.988C131.508 118.662 128.806 117.928 127.793 117.276C126.712 116.623 125.361 115.482 124.753 114.666C124.078 113.769 123.132 111.649 122.591 109.854C121.848 107.408 121.511 102.025 121.376 89.0582Z" fill="#EA6A12"/>
<path d="M180.822 93.7068C180.687 75.1941 180.822 71.2796 181.633 70.464C182.308 69.8116 184.268 69.4854 191.969 69.8932L193.185 74.3786C194.265 78.2116 194.468 81.8 194.468 99.2524C194.468 114.177 194.265 119.885 193.657 120.619C193.185 121.19 191.563 121.68 189.942 121.68C188.321 121.68 186.564 121.516 186.024 121.272C185.483 121.027 185.011 120.293 185.011 119.641C185.011 118.988 184.538 118.417 183.997 118.417C183.457 118.417 182.511 117.847 181.971 117.194C181.16 116.215 180.957 112.219 180.822 93.7068Z" fill="#EA6A12"/>
<path d="M88.95 84.0835C90.2335 82.3708 91.9223 81.2291 94.4893 80.4951C96.5159 79.9242 99.7585 79.3534 101.582 79.3534C103.474 79.2718 106.581 79.8427 108.54 80.4951C110.432 81.1475 112.999 82.6971 114.08 83.9204C115.228 85.2252 116.782 88.2427 117.525 90.6893C118.336 93.3805 119.079 98.1106 119.281 102.515C119.484 107.408 119.349 110.507 118.808 111.893C118.336 113.035 117.66 114.829 117.187 115.971C116.512 117.683 115.836 118.01 113.066 118.254C111.175 118.417 109.081 118.091 108.338 117.52C107.257 116.786 106.446 116.786 104.622 117.683C103.339 118.336 100.434 118.825 98.2048 118.744C95.5702 118.744 93.0032 118.091 90.9766 116.949C89.1526 115.971 87.2612 114.34 86.7207 113.28C86.1803 112.301 85.4372 110.181 85.167 108.631C84.8292 107.082 84.8292 104.472 85.0994 102.922C85.4147 101.019 86.5631 99.0349 88.5447 96.9689C90.8415 94.5223 91.1792 93.8699 90.0984 93.9514C89.3553 93.9514 88.342 93.5437 87.8691 92.9728C87.3963 92.4019 87.0585 90.6893 87.0585 89.2213C87.0585 87.5087 87.734 85.7145 88.95 84.0835Z" fill="#EA6A12"/>
<path d="M13.5606 84.8175C15.1819 83.8388 18.1542 82.6155 20.1808 82.0446C22.2074 81.4738 25.5175 80.9844 27.409 80.9844C30.7867 80.9029 30.9893 80.9844 30.9893 82.9417C30.9893 84.8175 30.7191 84.9806 27.9494 84.9806C26.2606 84.9806 25.0446 85.2252 25.1798 85.5514C25.3149 85.9592 26.6659 86.7747 30.9893 88.6505V100.639C30.9893 107.326 30.7867 112.709 30.4489 112.709C30.1787 112.709 28.1521 111.404 25.9228 109.854C23.6936 108.223 20.2484 104.961 18.2893 102.678C16.3303 100.313 14.101 96.8058 13.2228 94.767C12.4122 92.7281 11.6691 90.934 11.534 90.6893C11.3989 90.4446 11.0611 90.8524 10.7234 91.5048C10.318 92.1573 10.0478 93.7068 10.0478 94.9301C10.0478 96.2349 10.4532 98.1922 10.9936 99.4155C11.534 100.72 13.2904 103.249 14.9117 105.124C16.5329 107 19.6404 109.854 21.8696 111.485C24.0989 113.035 27.8819 115.237 30.3138 116.379C32.7457 117.439 36.6638 118.744 39.0957 119.233C41.5276 119.641 44.1622 120.049 44.9728 120.049C45.851 120.049 46.5266 119.641 46.5266 119.233C46.5266 118.744 45.6484 118.254 44.5 118.01C43.0813 117.683 42.5409 117.276 42.8111 116.379C43.0138 115.726 43.1489 111.485 43.1489 107C43.1489 99.4155 43.2165 98.8446 44.4324 99.0078C45.4457 99.1709 46.2563 101.047 47.8776 107C49.0936 111.241 50.5798 115.4 51.1877 116.216C51.7957 117.031 53.3494 117.928 56.9973 118.988L54.9707 119.967C53.8223 120.538 51.1202 121.353 48.8909 121.843C46.0537 122.414 43.4191 122.414 39.9063 121.761C37.2718 121.272 33.6239 120.293 31.8675 119.559C30.0436 118.825 26.3282 116.868 23.5585 115.074C20.7888 113.361 16.8032 110.181 14.7766 107.979C12.75 105.858 10.3856 102.433 9.57496 100.394C8.69677 98.4369 8.02124 95.6641 8.02124 94.3592C8.02124 92.9728 8.62922 90.6893 9.3723 89.2213C10.1154 87.8349 12.0069 85.7961 13.5606 84.8175Z" fill="#FFBC6C"/>
<path d="M64.1579 110.262C64.901 107.816 65.6441 105.287 65.7792 104.716C65.9819 104.227 66.8601 103.738 67.8058 103.738C69.4271 103.738 69.4946 103.901 69.4946 109.039C69.4946 112.301 69.2244 114.177 68.8191 113.932C68.4138 113.687 66.9952 113.85 65.5766 114.34C64.2255 114.748 63.0095 114.992 62.942 114.911C62.8744 114.829 63.4149 112.709 64.1579 110.262Z" fill="#FFBC6C"/>
<path d="M82.1946 110.751C82.1271 108.957 82.3973 107.816 83.0053 107.571C83.4782 107.408 84.0186 107.245 84.0861 107.326C84.2212 107.408 84.9643 109.039 85.8425 111.078C87.0585 113.932 88.1393 115.237 90.7739 116.705C93.0032 118.091 95.3675 118.744 97.867 118.744C99.8936 118.825 102.866 118.254 104.487 117.602C106.784 116.623 107.46 116.542 108.203 117.439C108.608 118.01 110.499 118.417 112.391 118.499C114.282 118.499 116.106 118.01 116.579 117.439C117.052 116.868 117.66 115.237 117.998 113.932C118.538 111.73 118.808 111.485 120.903 111.812C122.321 111.975 123.672 112.79 124.348 114.014C125.023 115.074 126.442 116.542 127.59 117.194C128.739 117.847 131.373 118.662 133.468 118.907C135.899 119.233 137.723 119.967 138.264 120.783C138.737 121.516 139.074 123.8 139.074 125.92C139.074 128.938 138.669 130.324 137.386 131.874C136.305 133.26 135.021 133.913 133.535 133.913C132.319 133.913 129.617 133.342 127.59 132.689C125.564 132.037 119.146 129.509 113.404 126.981C107.662 124.452 102.055 122.25 100.907 122.087C99.7585 121.843 97.7994 121.516 96.5159 121.272C95.2324 121.109 93.8813 120.538 93.476 120.13C93.0707 119.722 90.2335 118.825 87.0585 118.091C83.8835 117.357 81.2489 116.786 81.1138 116.786C81.0462 116.786 81.2489 116.052 81.6542 115.155C82.0595 114.258 82.2622 112.301 82.1946 110.751Z" fill="#FFBC6C"/>
<path d="M32.2053 93.9513C32.0702 76.9066 32.2729 72.9105 33.0159 72.095C33.6239 71.5241 36.3936 71.1164 40.4468 71.1164C44.8377 71.0348 47.1346 71.361 47.675 72.095C48.0803 72.6659 50.1744 79.027 52.201 86.2037C54.2952 93.3804 56.1867 99.4154 56.3218 99.66C56.5245 99.9047 56.7271 99.9047 56.8622 99.66C56.9973 99.4154 58.6862 93.5435 60.7127 86.6115C62.6718 79.6795 64.7659 73.3183 65.3739 72.5028C66.3197 71.1979 67.4005 71.0348 79.9654 71.5241L80.1005 93.5435C80.2356 110.425 80.1005 115.726 79.425 116.134C79.0197 116.46 77.2633 116.786 75.5744 116.786C73.8856 116.786 72.1292 116.378 71.6564 115.808C71.0484 114.992 70.8457 110.751 70.8457 99.66C70.8457 91.3416 70.6431 84.8989 70.3729 85.2251C70.0351 85.6329 67.9409 92.4018 65.5766 100.312C63.2798 108.305 60.8479 115.237 60.1723 115.808C59.5643 116.378 57.808 116.786 56.3218 116.786C54.5654 116.868 53.2143 116.297 52.5388 115.4C51.9308 114.584 49.7691 108.223 47.675 101.291C45.6484 94.3591 43.7569 87.9979 43.5542 87.1824C43.3516 86.4484 42.8112 85.796 42.4734 85.796C42.0681 85.796 41.7979 91.1785 41.7979 100.231C41.7979 110.588 41.5952 115.074 40.9872 115.726C40.5143 116.297 38.8255 116.786 37.1367 116.786C35.3803 116.786 33.6239 116.378 33.151 115.808C32.5431 114.992 32.2729 109.446 32.2053 93.9513Z" fill="#FFFEFE"/>
<path d="M122.727 88.9766C122.659 79.761 122.929 71.9319 123.199 71.6057C123.537 71.2795 125.631 71.1164 131.981 71.5241L132.319 83.3494L140.763 83.7571L140.966 87.0193C141.101 89.0581 140.831 90.5261 140.29 90.8523C139.818 91.1785 137.791 91.5047 132.319 91.5047V99.0076C132.252 105.287 132.522 106.837 133.468 107.979C134.278 108.876 136.102 109.446 138.737 109.61C142.722 109.854 142.79 109.936 142.993 112.301C143.06 113.606 142.857 115.074 142.52 115.563C142.182 115.971 140.155 116.623 137.994 116.868C135.764 117.112 132.657 117.031 130.968 116.623C129.279 116.215 127.185 115.074 126.239 114.013C125.294 112.872 124.145 110.588 123.74 108.876C123.199 106.918 122.862 99.6601 122.727 88.9766Z" fill="#FFFEFE"/>
<path d="M182.511 94.7668C182.511 82.86 182.579 72.7474 182.714 72.1766C182.849 71.4426 184.335 71.1164 191.09 71.1164L190.753 116.378H182.646L182.511 94.7668Z" fill="#FFFEFE"/>
<path d="M94.9622 82.0445C96.3808 81.7999 97.7994 81.4736 98.2048 81.229C98.6101 81.0659 101.042 81.0659 103.609 81.3105C106.311 81.5552 109.351 82.3707 110.702 83.1863C111.986 84.0018 113.742 85.9591 114.62 87.5086C116.106 90.1183 116.174 90.8523 115.769 116.378L112.391 116.623C109.959 116.705 108.811 116.46 108.338 115.563C107.73 114.421 107.392 114.421 104.96 115.645C103.406 116.46 100.502 117.031 98.2048 117.031C95.7053 116.949 93.1383 116.378 91.517 115.481C90.0308 114.584 88.2745 113.035 87.5989 111.893C86.7883 110.588 86.3154 108.468 86.3154 106.184C86.3154 103.738 86.7883 101.78 87.734 100.231C88.4771 99.0076 90.0984 97.4581 91.2468 96.6426C92.6654 95.827 95.9755 95.1746 100.434 94.8484C105.906 94.4406 107.324 94.1144 107.324 93.1358C107.324 92.4834 106.987 91.26 106.514 90.4445C105.973 89.629 104.42 88.8134 102.663 88.4872C100.231 88.0795 99.3532 88.4057 97.259 90.1999C95.3675 91.9125 94.2191 92.3202 91.7872 92.1571C88.95 91.9125 88.7473 91.7494 88.5447 89.4659C88.342 87.5901 88.7473 86.53 90.3686 84.7358C91.517 83.5125 93.6112 82.2892 94.9622 82.0445Z" fill="#FFFEFE"/>
<path d="M154.409 82.0445C155.828 81.7999 157.246 81.4736 157.652 81.229C158.057 81.0659 160.286 81.0659 162.718 81.229C165.353 81.3921 168.257 82.2076 169.946 83.2678C171.568 84.2465 173.459 86.2037 174.202 87.5901C175.418 90.0367 175.553 91.5047 175.215 116.378L171.838 116.623C169.338 116.786 168.257 116.542 167.785 115.645C167.177 114.503 166.839 114.503 164.407 115.645C162.921 116.378 159.881 117.031 157.652 117.031C155.017 117.031 152.653 116.542 150.964 115.481C149.478 114.666 147.654 112.872 146.911 111.648C145.965 110.099 145.492 108.06 145.492 105.777C145.492 103.167 145.897 101.699 147.181 100.068C148.127 98.8445 149.748 97.295 150.896 96.561C152.18 95.827 155.557 95.0931 159.881 94.8484C163.664 94.6037 166.771 94.1144 166.771 93.7067C166.771 93.3804 166.366 92.2387 165.893 91.0969C165.488 89.9552 164.474 88.895 163.731 88.6503C162.988 88.4872 161.637 88.2426 160.691 88.2426C159.746 88.2426 157.719 89.2212 156.098 90.2814C154.206 91.6678 152.45 92.2387 150.694 92.0756C148.464 91.9125 148.194 91.6678 147.991 89.4659C147.789 87.5901 148.194 86.53 149.815 84.7358C150.964 83.5125 153.058 82.2892 154.409 82.0445Z" fill="#FFFEFE"/>
<path d="M95.0298 106.429C94.9622 105.695 95.5026 104.39 96.1782 103.575C97.1239 102.433 98.475 102.107 107.324 102.107V104.961C107.324 107.734 107.189 107.897 103.812 109.039C101.853 109.691 99.7585 110.262 99.2181 110.262C98.6776 110.262 97.5292 109.691 96.7186 109.039C95.8404 108.386 95.0973 107.163 95.0298 106.429Z" fill="#EA6A12"/>
<path d="M154.477 105.777C154.409 104.553 154.882 103.493 155.693 103.004C156.368 102.514 159.205 102.107 161.907 102.107C166.771 102.107 166.771 102.107 166.771 104.39C166.839 105.613 166.433 107 165.961 107.571C165.488 108.06 163.596 108.957 161.705 109.528C158.732 110.425 158.057 110.425 156.503 109.202C155.355 108.386 154.544 107 154.477 105.777Z" fill="#EA6A12"/>
</svg>
