<svg width="236" height="201" viewBox="0 0 236 201" fill="none" xmlns="http://www.w3.org/2000/svg">
<rect width="233.771" height="201" rx="10" fill="white"/>
<path d="M118.185 84.1833H104.765C104.285 84.1825 103.826 83.9478 103.487 83.5309C103.148 83.114 102.957 82.5488 102.957 81.9593V79.9275C102.957 79.7058 103.028 79.4931 103.156 79.3363C103.283 79.1795 103.456 79.0914 103.637 79.0914H103.638L119.315 79.1274C119.495 79.1278 119.667 79.2161 119.795 79.3729C119.922 79.5296 119.993 79.742 119.993 79.9635V81.9601C119.993 82.5496 119.802 83.1147 119.463 83.5315C119.124 83.9483 118.664 84.1827 118.185 84.1833ZM121.791 53.1068C125.231 53.1068 128.018 50.9245 128.018 48.2306C128.018 45.5366 125.231 43.3544 121.791 43.3544C118.597 43.3544 115.967 44.4873 115.609 46.9137L96.2911 46.2356C95.9304 46.2356 95.5846 46.4118 95.3295 46.7254C95.0745 47.039 94.9313 47.4643 94.9313 47.9078C94.9313 48.3513 95.0745 48.7767 95.3295 49.0903C95.5846 49.4039 95.9304 49.5801 96.2911 49.5801L115.612 49.5558C115.976 51.978 118.601 53.1068 121.791 53.1068Z" fill="#E6E6E6"/>
<path d="M119.095 80.7996H119.08L103.635 80.7637C101.739 80.7602 99.9012 79.9509 98.4341 78.4727C96.1047 76.1227 94.229 73.1657 92.9423 69.8154C91.6556 66.4651 90.9902 62.8052 90.994 59.1C90.994 58.8783 91.0657 58.6656 91.1932 58.5088C91.3207 58.352 91.4936 58.2639 91.6739 58.2639H131.107C131.288 58.2639 131.461 58.352 131.588 58.5088C131.716 58.6656 131.787 58.8783 131.787 59.1C131.792 62.8205 131.122 66.4954 129.825 69.8568C128.528 73.2181 126.637 76.1811 124.291 78.5296C122.823 79.9987 120.988 80.8005 119.095 80.7996Z" fill="white"/>
<path d="M131.107 58.2639H123.353C123.534 58.2639 123.707 58.352 123.834 58.5088C123.962 58.6656 124.033 58.8783 124.033 59.1C124.038 62.8205 123.368 66.4954 122.071 69.8568C120.774 73.2181 118.883 76.1811 116.537 78.5296C115.154 79.909 113.445 80.6997 111.666 80.7829L119.08 80.7996H119.095C120.988 80.8005 122.823 79.9987 124.291 78.5296C126.637 76.1811 128.528 73.2181 129.825 69.8568C131.122 66.4954 131.792 62.8205 131.787 59.1C131.787 58.8783 131.716 58.6656 131.588 58.5088C131.461 58.352 131.288 58.2639 131.107 58.2639Z" fill="#E6E6E6"/>
<path d="M103.636 79.9275C101.897 79.9266 100.211 79.1847 98.8664 77.828C96.6151 75.5556 94.8022 72.6969 93.5583 69.4582C92.3145 66.2196 91.6709 62.6817 91.6738 59.1H131.107C131.11 62.6961 130.462 66.2479 129.208 69.497C127.955 72.746 126.128 75.6106 123.861 77.8824C122.511 79.2355 120.822 79.9713 119.081 79.9643L107.136 79.9359" stroke="#EA6A12" stroke-width="2" stroke-linecap="round" stroke-linejoin="round"/>
<path d="M103.636 79.9275V81.9601C103.637 82.3279 103.756 82.6806 103.967 82.9407C104.178 83.2008 104.465 83.347 104.764 83.3472H118.185C118.484 83.3468 118.771 83.2005 118.982 82.9404C119.194 82.6804 119.312 82.3278 119.313 81.9601V79.9635M121.791 53.1068C125.23 53.1068 128.018 50.9245 128.018 48.2306C128.018 45.5366 125.23 43.3544 121.791 43.3544C118.597 43.3544 115.967 44.4873 115.609 46.9137L96.2909 46.2356C95.9303 46.2356 95.5844 46.4118 95.3294 46.7254C95.0744 47.039 94.9312 47.4643 94.9312 47.9078C94.9312 48.3513 95.0744 48.7767 95.3294 49.0903C95.5844 49.4039 95.9303 49.5801 96.2909 49.5801L115.612 49.5558C115.976 51.978 118.601 53.1068 121.791 53.1068Z" stroke="#EA6A12" stroke-width="2" stroke-linecap="round" stroke-linejoin="round"/>
<path d="M28.68 101.08H46.2V118.2H28.68V101.08ZM40.96 105.28H33.92V114H40.96V105.28ZM51.44 98.52H56.76V122.92H51.44V98.52ZM55.28 107.76H61.68V112.08H55.28V107.76ZM42.32 121.24H46.88V122.2C46.88 128.76 41.88 134.04 32.8 135.44L30.76 131.28C38.68 130.24 42.32 126.2 42.32 122.2V121.24ZM43.08 121.24H47.6V122.2C47.6 126.2 51.28 130.24 59.16 131.28L57.16 135.44C48.08 134.04 43.08 128.76 43.08 122.2V121.24ZM88.2369 98.52H93.5569V117H88.2369V98.52ZM91.3969 105.6H98.4369V109.96H91.3969V105.6ZM69.0769 118.48H93.5569V128.64H74.4369V133.04H69.1569V124.8H88.3169V122.56H69.0769V118.48ZM69.1569 131H94.6369V135.16H69.1569V131ZM74.5169 99.6C80.1969 99.6 84.3969 103.08 84.3969 108C84.3969 112.88 80.1969 116.4 74.5169 116.4C68.8769 116.4 64.6369 112.88 64.6369 108C64.6369 103.08 68.8769 99.6 74.5169 99.6ZM74.5169 103.88C71.7969 103.88 69.7969 105.4 69.7969 108C69.7969 110.6 71.7969 112.16 74.5169 112.16C77.2769 112.16 79.2769 110.6 79.2769 108C79.2769 105.4 77.2769 103.88 74.5169 103.88ZM104.634 101.64H128.114V105.92H104.634V101.64ZM101.234 126.8H134.714V131.12H101.234V126.8ZM113.074 114.08H118.394V128.92H113.074V114.08ZM126.194 101.64H131.514V105.2C131.514 109.84 131.514 115.04 130.034 122.96L124.714 122.36C126.194 115 126.194 109.64 126.194 105.2V101.64ZM163.511 98.48H168.831V135.64H163.511V98.48ZM139.991 122.68H143.271C149.831 122.68 155.071 122.44 160.951 121.44L161.471 125.72C155.471 126.8 150.031 127 143.271 127H139.991V122.68ZM139.951 101.64H157.431V115.96H145.391V124.28H139.991V111.76H151.991V105.88H139.951V101.64ZM187.868 102.08H192.588V103C192.588 108.56 187.588 113.12 178.028 114L176.188 109.84C184.308 109.12 187.868 105.88 187.868 103V102.08ZM190.468 102.08H195.188V103C195.188 105.88 198.708 109.12 206.868 109.84L205.028 114C195.508 113.12 190.468 108.56 190.468 103V102.08ZM177.828 99.96H205.268V104.16H177.828V99.96ZM178.668 122.24H204.268V135.16H178.668V122.24ZM199.068 126.44H183.908V130.96H199.068V126.44ZM174.788 115.32H208.268V119.52H174.788V115.32Z" fill="#EA6A12"/>
<mask id="path-9-outside-1_741_525" maskUnits="userSpaceOnUse" x="27.384" y="93" width="183" height="40" fill="black">
<rect fill="white" x="27.384" y="93" width="183" height="40"/>
<path d="M29.064 97.08H46.584V114.2H29.064V97.08ZM41.344 101.28H34.304V110H41.344V101.28ZM51.824 94.52H57.144V118.92H51.824V94.52ZM55.664 103.76H62.064V108.08H55.664V103.76ZM42.704 117.24H47.264V118.2C47.264 124.76 42.264 130.04 33.184 131.44L31.144 127.28C39.064 126.24 42.704 122.2 42.704 118.2V117.24ZM43.464 117.24H47.984V118.2C47.984 122.2 51.664 126.24 59.544 127.28L57.544 131.44C48.464 130.04 43.464 124.76 43.464 118.2V117.24ZM88.6209 94.52H93.9409V113H88.6209V94.52ZM91.7809 101.6H98.8209V105.96H91.7809V101.6ZM69.4609 114.48H93.9409V124.64H74.8209V129.04H69.5409V120.8H88.7009V118.56H69.4609V114.48ZM69.5409 127H95.0209V131.16H69.5409V127ZM74.9009 95.6C80.5809 95.6 84.7809 99.08 84.7809 104C84.7809 108.88 80.5809 112.4 74.9009 112.4C69.2609 112.4 65.0209 108.88 65.0209 104C65.0209 99.08 69.2609 95.6 74.9009 95.6ZM74.9009 99.88C72.1809 99.88 70.1809 101.4 70.1809 104C70.1809 106.6 72.1809 108.16 74.9009 108.16C77.6609 108.16 79.6609 106.6 79.6609 104C79.6609 101.4 77.6609 99.88 74.9009 99.88ZM105.018 97.64H128.498V101.92H105.018V97.64ZM101.618 122.8H135.098V127.12H101.618V122.8ZM113.458 110.08H118.778V124.92H113.458V110.08ZM126.578 97.64H131.898V101.2C131.898 105.84 131.898 111.04 130.418 118.96L125.098 118.36C126.578 111 126.578 105.64 126.578 101.2V97.64ZM163.895 94.48H169.215V131.64H163.895V94.48ZM140.375 118.68H143.655C150.215 118.68 155.455 118.44 161.335 117.44L161.855 121.72C155.855 122.8 150.415 123 143.655 123H140.375V118.68ZM140.335 97.64H157.815V111.96H145.775V120.28H140.375V107.76H152.375V101.88H140.335V97.64ZM188.252 98.08H192.972V99C192.972 104.56 187.972 109.12 178.412 110L176.572 105.84C184.692 105.12 188.252 101.88 188.252 99V98.08ZM190.852 98.08H195.572V99C195.572 101.88 199.092 105.12 207.252 105.84L205.412 110C195.892 109.12 190.852 104.56 190.852 99V98.08ZM178.212 95.96H205.652V100.16H178.212V95.96ZM179.052 118.24H204.652V131.16H179.052V118.24ZM199.452 122.44H184.292V126.96H199.452V122.44ZM175.172 111.32H208.652V115.52H175.172V111.32Z"/>
</mask>
<path d="M29.064 97.08H46.584V114.2H29.064V97.08ZM41.344 101.28H34.304V110H41.344V101.28ZM51.824 94.52H57.144V118.92H51.824V94.52ZM55.664 103.76H62.064V108.08H55.664V103.76ZM42.704 117.24H47.264V118.2C47.264 124.76 42.264 130.04 33.184 131.44L31.144 127.28C39.064 126.24 42.704 122.2 42.704 118.2V117.24ZM43.464 117.24H47.984V118.2C47.984 122.2 51.664 126.24 59.544 127.28L57.544 131.44C48.464 130.04 43.464 124.76 43.464 118.2V117.24ZM88.6209 94.52H93.9409V113H88.6209V94.52ZM91.7809 101.6H98.8209V105.96H91.7809V101.6ZM69.4609 114.48H93.9409V124.64H74.8209V129.04H69.5409V120.8H88.7009V118.56H69.4609V114.48ZM69.5409 127H95.0209V131.16H69.5409V127ZM74.9009 95.6C80.5809 95.6 84.7809 99.08 84.7809 104C84.7809 108.88 80.5809 112.4 74.9009 112.4C69.2609 112.4 65.0209 108.88 65.0209 104C65.0209 99.08 69.2609 95.6 74.9009 95.6ZM74.9009 99.88C72.1809 99.88 70.1809 101.4 70.1809 104C70.1809 106.6 72.1809 108.16 74.9009 108.16C77.6609 108.16 79.6609 106.6 79.6609 104C79.6609 101.4 77.6609 99.88 74.9009 99.88ZM105.018 97.64H128.498V101.92H105.018V97.64ZM101.618 122.8H135.098V127.12H101.618V122.8ZM113.458 110.08H118.778V124.92H113.458V110.08ZM126.578 97.64H131.898V101.2C131.898 105.84 131.898 111.04 130.418 118.96L125.098 118.36C126.578 111 126.578 105.64 126.578 101.2V97.64ZM163.895 94.48H169.215V131.64H163.895V94.48ZM140.375 118.68H143.655C150.215 118.68 155.455 118.44 161.335 117.44L161.855 121.72C155.855 122.8 150.415 123 143.655 123H140.375V118.68ZM140.335 97.64H157.815V111.96H145.775V120.28H140.375V107.76H152.375V101.88H140.335V97.64ZM188.252 98.08H192.972V99C192.972 104.56 187.972 109.12 178.412 110L176.572 105.84C184.692 105.12 188.252 101.88 188.252 99V98.08ZM190.852 98.08H195.572V99C195.572 101.88 199.092 105.12 207.252 105.84L205.412 110C195.892 109.12 190.852 104.56 190.852 99V98.08ZM178.212 95.96H205.652V100.16H178.212V95.96ZM179.052 118.24H204.652V131.16H179.052V118.24ZM199.452 122.44H184.292V126.96H199.452V122.44ZM175.172 111.32H208.652V115.52H175.172V111.32Z" fill="white"/>
<path d="M29.064 97.08V96.08H28.064V97.08H29.064ZM46.584 97.08H47.584V96.08H46.584V97.08ZM46.584 114.2V115.2H47.584V114.2H46.584ZM29.064 114.2H28.064V115.2H29.064V114.2ZM41.344 101.28H42.344V100.28H41.344V101.28ZM34.304 101.28V100.28H33.304V101.28H34.304ZM34.304 110H33.304V111H34.304V110ZM41.344 110V111H42.344V110H41.344ZM51.824 94.52V93.52H50.824V94.52H51.824ZM57.144 94.52H58.144V93.52H57.144V94.52ZM57.144 118.92V119.92H58.144V118.92H57.144ZM51.824 118.92H50.824V119.92H51.824V118.92ZM55.664 103.76V102.76H54.664V103.76H55.664ZM62.064 103.76H63.064V102.76H62.064V103.76ZM62.064 108.08V109.08H63.064V108.08H62.064ZM55.664 108.08H54.664V109.08H55.664V108.08ZM42.704 117.24V116.24H41.704V117.24H42.704ZM47.264 117.24H48.264V116.24H47.264V117.24ZM33.184 131.44L32.2862 131.88L32.6099 132.54L33.3364 132.428L33.184 131.44ZM31.144 127.28L31.0138 126.289L29.633 126.47L30.2462 127.72L31.144 127.28ZM43.464 117.24V116.24H42.464V117.24H43.464ZM47.984 117.24H48.984V116.24H47.984V117.24ZM59.544 127.28L60.4453 127.713L61.0434 126.469L59.6749 126.289L59.544 127.28ZM57.544 131.44L57.3917 132.428L58.1241 132.541L58.4453 131.873L57.544 131.44ZM29.064 98.08H46.584V96.08H29.064V98.08ZM45.584 97.08V114.2H47.584V97.08H45.584ZM46.584 113.2H29.064V115.2H46.584V113.2ZM30.064 114.2V97.08H28.064V114.2H30.064ZM41.344 100.28H34.304V102.28H41.344V100.28ZM33.304 101.28V110H35.304V101.28H33.304ZM34.304 111H41.344V109H34.304V111ZM42.344 110V101.28H40.344V110H42.344ZM51.824 95.52H57.144V93.52H51.824V95.52ZM56.144 94.52V118.92H58.144V94.52H56.144ZM57.144 117.92H51.824V119.92H57.144V117.92ZM52.824 118.92V94.52H50.824V118.92H52.824ZM55.664 104.76H62.064V102.76H55.664V104.76ZM61.064 103.76V108.08H63.064V103.76H61.064ZM62.064 107.08H55.664V109.08H62.064V107.08ZM56.664 108.08V103.76H54.664V108.08H56.664ZM42.704 118.24H47.264V116.24H42.704V118.24ZM46.264 117.24V118.2H48.264V117.24H46.264ZM46.264 118.2C46.264 121.208 45.1246 123.91 42.9325 126.037C40.7294 128.176 37.4172 129.776 33.0316 130.452L33.3364 132.428C38.0309 131.705 41.7587 129.964 44.3255 127.473C46.9034 124.97 48.264 121.752 48.264 118.2H46.264ZM34.0819 131L32.0419 126.84L30.2462 127.72L32.2862 131.88L34.0819 131ZM31.2742 128.271C39.4297 127.201 43.704 122.928 43.704 118.2H41.704C41.704 121.472 38.6983 125.279 31.0138 126.289L31.2742 128.271ZM43.704 118.2V117.24H41.704V118.2H43.704ZM43.464 118.24H47.984V116.24H43.464V118.24ZM46.984 117.24V118.2H48.984V117.24H46.984ZM46.984 118.2C46.984 122.93 51.3012 127.201 59.4132 128.271L59.6749 126.289C52.0269 125.279 48.984 121.47 48.984 118.2H46.984ZM58.6428 126.847L56.6428 131.007L58.4453 131.873L60.4453 127.713L58.6428 126.847ZM57.6964 130.452C53.3109 129.776 49.9987 128.176 47.7955 126.037C45.6034 123.91 44.464 121.208 44.464 118.2H42.464C42.464 121.752 43.8246 124.97 46.4025 127.473C48.9694 129.964 52.6972 131.705 57.3917 132.428L57.6964 130.452ZM44.464 118.2V117.24H42.464V118.2H44.464ZM88.6209 94.52V93.52H87.6209V94.52H88.6209ZM93.9409 94.52H94.9409V93.52H93.9409V94.52ZM93.9409 113V114H94.9409V113H93.9409ZM88.6209 113H87.6209V114H88.6209V113ZM91.7809 101.6V100.6H90.7809V101.6H91.7809ZM98.8209 101.6H99.8209V100.6H98.8209V101.6ZM98.8209 105.96V106.96H99.8209V105.96H98.8209ZM91.7809 105.96H90.7809V106.96H91.7809V105.96ZM69.4609 114.48V113.48H68.4609V114.48H69.4609ZM93.9409 114.48H94.9409V113.48H93.9409V114.48ZM93.9409 124.64V125.64H94.9409V124.64H93.9409ZM74.8209 124.64V123.64H73.8209V124.64H74.8209ZM74.8209 129.04V130.04H75.8209V129.04H74.8209ZM69.5409 129.04H68.5409V130.04H69.5409V129.04ZM69.5409 120.8V119.8H68.5409V120.8H69.5409ZM88.7009 120.8V121.8H89.7009V120.8H88.7009ZM88.7009 118.56H89.7009V117.56H88.7009V118.56ZM69.4609 118.56H68.4609V119.56H69.4609V118.56ZM69.5409 127V126H68.5409V127H69.5409ZM95.0209 127H96.0209V126H95.0209V127ZM95.0209 131.16V132.16H96.0209V131.16H95.0209ZM69.5409 131.16H68.5409V132.16H69.5409V131.16ZM88.6209 95.52H93.9409V93.52H88.6209V95.52ZM92.9409 94.52V113H94.9409V94.52H92.9409ZM93.9409 112H88.6209V114H93.9409V112ZM89.6209 113V94.52H87.6209V113H89.6209ZM91.7809 102.6H98.8209V100.6H91.7809V102.6ZM97.8209 101.6V105.96H99.8209V101.6H97.8209ZM98.8209 104.96H91.7809V106.96H98.8209V104.96ZM92.7809 105.96V101.6H90.7809V105.96H92.7809ZM69.4609 115.48H93.9409V113.48H69.4609V115.48ZM92.9409 114.48V124.64H94.9409V114.48H92.9409ZM93.9409 123.64H74.8209V125.64H93.9409V123.64ZM73.8209 124.64V129.04H75.8209V124.64H73.8209ZM74.8209 128.04H69.5409V130.04H74.8209V128.04ZM70.5409 129.04V120.8H68.5409V129.04H70.5409ZM69.5409 121.8H88.7009V119.8H69.5409V121.8ZM89.7009 120.8V118.56H87.7009V120.8H89.7009ZM88.7009 117.56H69.4609V119.56H88.7009V117.56ZM70.4609 118.56V114.48H68.4609V118.56H70.4609ZM69.5409 128H95.0209V126H69.5409V128ZM94.0209 127V131.16H96.0209V127H94.0209ZM95.0209 130.16H69.5409V132.16H95.0209V130.16ZM70.5409 131.16V127H68.5409V131.16H70.5409ZM74.9009 96.6C80.1946 96.6 83.7809 99.7848 83.7809 104H85.7809C85.7809 98.3752 80.9672 94.6 74.9009 94.6V96.6ZM83.7809 104C83.7809 108.178 80.1912 111.4 74.9009 111.4V113.4C80.9706 113.4 85.7809 109.582 85.7809 104H83.7809ZM74.9009 111.4C69.6478 111.4 66.0209 108.176 66.0209 104H64.0209C64.0209 109.584 68.8741 113.4 74.9009 113.4V111.4ZM66.0209 104C66.0209 99.7872 69.6444 96.6 74.9009 96.6V94.6C68.8774 94.6 64.0209 98.3728 64.0209 104H66.0209ZM74.9009 98.88C73.3629 98.88 71.9375 99.3098 70.878 100.199C69.7992 101.105 69.1809 102.421 69.1809 104H71.1809C71.1809 102.979 71.5627 102.235 72.1638 101.731C72.7843 101.21 73.7189 100.88 74.9009 100.88V98.88ZM69.1809 104C69.1809 105.578 69.7979 106.902 70.8727 107.816C71.9304 108.717 73.3567 109.16 74.9009 109.16V107.16C73.7251 107.16 72.7914 106.823 72.1691 106.294C71.5639 105.778 71.1809 105.022 71.1809 104H69.1809ZM74.9009 109.16C76.4619 109.16 77.898 108.719 78.9619 107.818C80.0436 106.903 80.6609 105.578 80.6609 104H78.6609C78.6609 105.022 78.2783 105.777 77.67 106.292C77.0438 106.821 76.0999 107.16 74.9009 107.16V109.16ZM80.6609 104C80.6609 102.421 80.0423 101.103 78.9565 100.197C77.891 99.3081 76.4557 98.88 74.9009 98.88V100.88C76.1061 100.88 77.0509 101.212 77.6753 101.733C78.2795 102.237 78.6609 102.979 78.6609 104H80.6609ZM105.018 97.64V96.64H104.018V97.64H105.018ZM128.498 97.64H129.498V96.64H128.498V97.64ZM128.498 101.92V102.92H129.498V101.92H128.498ZM105.018 101.92H104.018V102.92H105.018V101.92ZM101.618 122.8V121.8H100.618V122.8H101.618ZM135.098 122.8H136.098V121.8H135.098V122.8ZM135.098 127.12V128.12H136.098V127.12H135.098ZM101.618 127.12H100.618V128.12H101.618V127.12ZM113.458 110.08V109.08H112.458V110.08H113.458ZM118.778 110.08H119.778V109.08H118.778V110.08ZM118.778 124.92V125.92H119.778V124.92H118.778ZM113.458 124.92H112.458V125.92H113.458V124.92ZM126.578 97.64V96.64H125.578V97.64H126.578ZM131.898 97.64H132.898V96.64H131.898V97.64ZM130.418 118.96L130.306 119.954L131.23 120.058L131.401 119.144L130.418 118.96ZM125.098 118.36L124.117 118.163L123.903 119.232L124.986 119.354L125.098 118.36ZM105.018 98.64H128.498V96.64H105.018V98.64ZM127.498 97.64V101.92H129.498V97.64H127.498ZM128.498 100.92H105.018V102.92H128.498V100.92ZM106.018 101.92V97.64H104.018V101.92H106.018ZM101.618 123.8H135.098V121.8H101.618V123.8ZM134.098 122.8V127.12H136.098V122.8H134.098ZM135.098 126.12H101.618V128.12H135.098V126.12ZM102.618 127.12V122.8H100.618V127.12H102.618ZM113.458 111.08H118.778V109.08H113.458V111.08ZM117.778 110.08V124.92H119.778V110.08H117.778ZM118.778 123.92H113.458V125.92H118.778V123.92ZM114.458 124.92V110.08H112.458V124.92H114.458ZM126.578 98.64H131.898V96.64H126.578V98.64ZM130.898 97.64V101.2H132.898V97.64H130.898ZM130.898 101.2C130.898 105.822 130.898 110.948 129.435 118.776L131.401 119.144C132.898 111.132 132.898 105.858 132.898 101.2H130.898ZM130.53 117.966L125.21 117.366L124.986 119.354L130.306 119.954L130.53 117.966ZM126.078 118.557C127.579 111.096 127.578 105.654 127.578 101.2H125.578C125.578 105.626 125.577 110.904 124.117 118.163L126.078 118.557ZM127.578 101.2V97.64H125.578V101.2H127.578ZM163.895 94.48V93.48H162.895V94.48H163.895ZM169.215 94.48H170.215V93.48H169.215V94.48ZM169.215 131.64V132.64H170.215V131.64H169.215ZM163.895 131.64H162.895V132.64H163.895V131.64ZM140.375 118.68V117.68H139.375V118.68H140.375ZM161.335 117.44L162.327 117.319L162.201 116.278L161.167 116.454L161.335 117.44ZM161.855 121.72L162.032 122.704L162.961 122.537L162.847 121.599L161.855 121.72ZM140.375 123H139.375V124H140.375V123ZM140.335 97.64V96.64H139.335V97.64H140.335ZM157.815 97.64H158.815V96.64H157.815V97.64ZM157.815 111.96V112.96H158.815V111.96H157.815ZM145.775 111.96V110.96H144.775V111.96H145.775ZM145.775 120.28V121.28H146.775V120.28H145.775ZM140.375 120.28H139.375V121.28H140.375V120.28ZM140.375 107.76V106.76H139.375V107.76H140.375ZM152.375 107.76V108.76H153.375V107.76H152.375ZM152.375 101.88H153.375V100.88H152.375V101.88ZM140.335 101.88H139.335V102.88H140.335V101.88ZM163.895 95.48H169.215V93.48H163.895V95.48ZM168.215 94.48V131.64H170.215V94.48H168.215ZM169.215 130.64H163.895V132.64H169.215V130.64ZM164.895 131.64V94.48H162.895V131.64H164.895ZM140.375 119.68H143.655V117.68H140.375V119.68ZM143.655 119.68C150.241 119.68 155.544 119.439 161.502 118.426L161.167 116.454C155.365 117.441 150.188 117.68 143.655 117.68V119.68ZM160.342 117.561L160.862 121.841L162.847 121.599L162.327 117.319L160.342 117.561ZM161.678 120.736C155.766 121.8 150.396 122 143.655 122V124C150.433 124 155.944 123.8 162.032 122.704L161.678 120.736ZM143.655 122H140.375V124H143.655V122ZM141.375 123V118.68H139.375V123H141.375ZM140.335 98.64H157.815V96.64H140.335V98.64ZM156.815 97.64V111.96H158.815V97.64H156.815ZM157.815 110.96H145.775V112.96H157.815V110.96ZM144.775 111.96V120.28H146.775V111.96H144.775ZM145.775 119.28H140.375V121.28H145.775V119.28ZM141.375 120.28V107.76H139.375V120.28H141.375ZM140.375 108.76H152.375V106.76H140.375V108.76ZM153.375 107.76V101.88H151.375V107.76H153.375ZM152.375 100.88H140.335V102.88H152.375V100.88ZM141.335 101.88V97.64H139.335V101.88H141.335ZM188.252 98.08V97.08H187.252V98.08H188.252ZM192.972 98.08H193.972V97.08H192.972V98.08ZM178.412 110L177.497 110.405L177.788 111.062L178.503 110.996L178.412 110ZM176.572 105.84L176.483 104.844L175.092 104.967L175.657 106.245L176.572 105.84ZM190.852 98.08V97.08H189.852V98.08H190.852ZM195.572 98.08H196.572V97.08H195.572V98.08ZM207.252 105.84L208.166 106.245L208.731 104.967L207.339 104.844L207.252 105.84ZM205.412 110L205.319 110.996L206.035 111.062L206.326 110.405L205.412 110ZM178.212 95.96V94.96H177.212V95.96H178.212ZM205.652 95.96H206.652V94.96H205.652V95.96ZM205.652 100.16V101.16H206.652V100.16H205.652ZM178.212 100.16H177.212V101.16H178.212V100.16ZM179.052 118.24V117.24H178.052V118.24H179.052ZM204.652 118.24H205.652V117.24H204.652V118.24ZM204.652 131.16V132.16H205.652V131.16H204.652ZM179.052 131.16H178.052V132.16H179.052V131.16ZM199.452 122.44H200.452V121.44H199.452V122.44ZM184.292 122.44V121.44H183.292V122.44H184.292ZM184.292 126.96H183.292V127.96H184.292V126.96ZM199.452 126.96V127.96H200.452V126.96H199.452ZM175.172 111.32V110.32H174.172V111.32H175.172ZM208.652 111.32H209.652V110.32H208.652V111.32ZM208.652 115.52V116.52H209.652V115.52H208.652ZM175.172 115.52H174.172V116.52H175.172V115.52ZM188.252 99.08H192.972V97.08H188.252V99.08ZM191.972 98.08V99H193.972V98.08H191.972ZM191.972 99C191.972 101.448 190.882 103.7 188.654 105.472C186.405 107.261 182.971 108.576 178.32 109.004L178.503 110.996C183.413 110.544 187.258 109.139 189.899 107.038C192.561 104.92 193.972 102.112 193.972 99H191.972ZM179.326 109.595L177.486 105.435L175.657 106.245L177.497 110.405L179.326 109.595ZM176.66 106.836C180.826 106.467 183.922 105.444 186.008 104.064C188.091 102.687 189.252 100.882 189.252 99H187.252C187.252 99.9976 186.632 101.253 184.905 102.396C183.181 103.536 180.437 104.493 176.483 104.844L176.66 106.836ZM189.252 99V98.08H187.252V99H189.252ZM190.852 99.08H195.572V97.08H190.852V99.08ZM194.572 98.08V99H196.572V98.08H194.572ZM194.572 99C194.572 100.879 195.718 102.684 197.799 104.063C199.881 105.444 202.979 106.467 207.164 106.836L207.339 104.844C203.365 104.493 200.622 103.536 198.904 102.397C197.185 101.256 196.572 100.001 196.572 99H194.572ZM206.337 105.435L204.497 109.595L206.326 110.405L208.166 106.245L206.337 105.435ZM205.504 109.004C200.873 108.576 197.438 107.262 195.183 105.472C192.949 103.698 191.852 101.446 191.852 99H189.852C189.852 102.114 191.275 104.922 193.94 107.038C196.585 109.138 200.43 110.544 205.319 110.996L205.504 109.004ZM191.852 99V98.08H189.852V99H191.852ZM178.212 96.96H205.652V94.96H178.212V96.96ZM204.652 95.96V100.16H206.652V95.96H204.652ZM205.652 99.16H178.212V101.16H205.652V99.16ZM179.212 100.16V95.96H177.212V100.16H179.212ZM179.052 119.24H204.652V117.24H179.052V119.24ZM203.652 118.24V131.16H205.652V118.24H203.652ZM204.652 130.16H179.052V132.16H204.652V130.16ZM180.052 131.16V118.24H178.052V131.16H180.052ZM199.452 121.44H184.292V123.44H199.452V121.44ZM183.292 122.44V126.96H185.292V122.44H183.292ZM184.292 127.96H199.452V125.96H184.292V127.96ZM200.452 126.96V122.44H198.452V126.96H200.452ZM175.172 112.32H208.652V110.32H175.172V112.32ZM207.652 111.32V115.52H209.652V111.32H207.652ZM208.652 114.52H175.172V116.52H208.652V114.52ZM176.172 115.52V111.32H174.172V115.52H176.172Z" fill="#EA6A12" mask="url(#path-9-outside-1_741_525)"/>
</svg>
