<svg width="246" height="244" viewBox="0 0 246 244" fill="none" xmlns="http://www.w3.org/2000/svg">
<path d="M123 0C95.4413 -3.25962e-07 68.6811 9.17972 47.0107 26.067C25.3403 42.9543 10.0155 66.5707 3.49377 93.1289C-3.02794 119.687 -0.368642 147.648 11.0452 172.528C22.459 197.408 41.9661 217.765 66.4381 230.335C90.91 242.905 118.929 246.959 146.001 241.848C173.074 236.736 197.631 222.755 215.736 202.146C233.84 181.537 244.442 155.495 245.841 128.195C247.241 100.896 239.357 73.9215 223.453 51.5974L123 122L123 0Z" fill="#EA6A12"/>
<path d="M229.062 60.2186C218.246 41.95 202.819 26.7902 184.301 16.2315L123 122L229.062 60.2186Z" fill="#FF9A62"/>
<path d="M183.132 15.5728C162.869 4.30991 139.806 -1.03214 116.61 0.164753L123 122L183.132 15.5728Z" fill="#FFF1E1"/>
</svg>
