<svg width="33" height="34" viewBox="0 0 33 34" fill="none" xmlns="http://www.w3.org/2000/svg">
<path d="M33 17C33 21.5087 31.2616 25.8327 28.1673 29.0208C25.0729 32.2089 20.8761 34 16.5 34C12.1239 34 7.92709 32.2089 4.83274 29.0208C1.73839 25.8327 0 21.5087 0 17C0 12.4913 1.73839 8.1673 4.83274 4.97919C7.92709 1.79107 12.1239 0 16.5 0C20.8761 0 25.0729 1.79107 28.1673 4.97919C31.2616 8.1673 33 12.4913 33 17ZM23.7188 29.886L21.0767 19.907C21.0169 19.6821 20.887 19.4837 20.707 19.3424C20.527 19.201 20.3068 19.1247 20.0805 19.125H12.9195C12.6932 19.1247 12.473 19.201 12.293 19.3424C12.113 19.4837 11.9831 19.6821 11.9233 19.907L9.28331 29.886C11.4767 31.1926 13.9663 31.8788 16.5 31.875C19.1297 31.875 21.5944 31.1525 23.7188 29.886ZM25.5193 28.6152C27.8553 26.6897 29.5531 24.064 30.3779 21.1012C31.2027 18.1383 31.1139 14.9847 30.1236 12.0762C29.1333 9.16762 27.2905 6.64787 24.85 4.86522C22.4094 3.08256 19.4916 2.12506 16.5 2.12506C13.5084 2.12506 10.5906 3.08256 8.15005 4.86522C5.7095 6.64787 3.86671 9.16762 2.87643 12.0762C1.88614 14.9847 1.79725 18.1383 2.62207 21.1012C3.44688 24.064 5.14465 26.6897 7.48069 28.6152L9.93506 19.3503C10.1006 18.7234 10.448 18.1636 10.9309 17.7458C11.4138 17.328 12.009 17.0723 12.6369 17.0128L15.0191 8.82938C15.4584 7.31425 17.5416 7.31425 17.9809 8.82938L20.3651 17.0128C20.993 17.0723 21.5883 17.328 22.0712 17.7458C22.554 18.1636 22.9015 18.7234 23.067 19.3503L25.5193 28.6152Z" fill="#FB9F3E"/>
</svg>
