<svg width="30" height="30" viewBox="0 0 30 30" fill="none" xmlns="http://www.w3.org/2000/svg">
<path d="M22.5562 3.75875L15.3875 3.75C15.0619 3.75016 14.7396 3.81487 14.4392 3.94038C14.1389 4.0659 13.8664 4.24974 13.6375 4.48125L4.47497 13.7238C4.01503 14.1913 3.75726 14.821 3.75726 15.4769C3.75726 16.1328 4.01503 16.7624 4.47497 17.23L12.6912 25.5188C12.9197 25.7508 13.1921 25.935 13.4926 26.0606C13.7931 26.1861 14.1156 26.2505 14.4412 26.25C14.7668 26.2498 15.0891 26.1851 15.3895 26.0596C15.6898 25.9341 15.9623 25.7503 16.1912 25.5188L25.4525 16.1725C25.7032 15.9393 25.9034 15.6571 26.0406 15.3434C26.1777 15.0297 26.249 14.6911 26.25 14.3488V7.47375C26.2506 6.49194 25.8624 5.54984 25.1701 4.85361C24.4779 4.15738 23.538 3.76371 22.5562 3.75875ZM19.4912 11.8062C19.1597 11.8062 18.8418 11.6746 18.6073 11.4401C18.3729 11.2057 18.2412 10.8878 18.2412 10.5562C18.2412 10.2247 18.3729 9.90679 18.6073 9.67237C18.8418 9.43795 19.1597 9.30625 19.4912 9.30625C19.8227 9.30625 20.1407 9.43795 20.3751 9.67237C20.6095 9.90679 20.7412 10.2247 20.7412 10.5562C20.7412 10.8878 20.6095 11.2057 20.3751 11.4401C20.1407 11.6746 19.8227 11.8062 19.4912 11.8062Z" fill="#FFD233"/>
</svg>
