<svg width="10" height="8" viewBox="0 0 6 5" fill="none" xmlns="http://www.w3.org/2000/svg">
<path d="M0.232414 0.194251C0.266821 0.162239 0.307695 0.13684 0.352694 0.119511C0.397694 0.102182 0.445935 0.0932617 0.494655 0.0932617C0.543375 0.0932617 0.591617 0.102182 0.636617 0.119511C0.681616 0.13684 0.72249 0.162239 0.756897 0.194251L2.71704 2.01406L4.67718 0.194251C4.71162 0.162291 4.7525 0.136938 4.7975 0.119641C4.84249 0.102344 4.89072 0.0934417 4.93942 0.0934417C4.98813 0.0934417 5.03635 0.102344 5.08135 0.119641C5.12634 0.136938 5.16723 0.162291 5.20166 0.194251C5.2361 0.226211 5.26342 0.264154 5.28206 0.305912C5.3007 0.347671 5.31029 0.392427 5.31029 0.437626C5.31029 0.482825 5.3007 0.527581 5.28206 0.56934C5.26342 0.611098 5.2361 0.649041 5.20166 0.681001L3.24078 2.50013L5.20166 4.31925C5.2361 4.35121 5.26342 4.38915 5.28206 4.43091C5.3007 4.47267 5.31029 4.51743 5.31029 4.56263C5.31029 4.60782 5.3007 4.65258 5.28206 4.69434C5.26342 4.7361 5.2361 4.77404 5.20166 4.806C5.16723 4.83796 5.12634 4.86331 5.08135 4.88061C5.03635 4.89791 4.98813 4.90681 4.93942 4.90681C4.89072 4.90681 4.84249 4.89791 4.7975 4.88061C4.7525 4.86331 4.71162 4.83796 4.67718 4.806L2.71704 2.98619L0.756897 4.806C0.722459 4.83796 0.681575 4.86331 0.63658 4.88061C0.591584 4.89791 0.543358 4.90681 0.494655 4.90681C0.445953 4.90681 0.397727 4.89791 0.352731 4.88061C0.307736 4.86331 0.266852 4.83796 0.232414 4.806C0.197976 4.77404 0.170658 4.7361 0.152021 4.69434C0.133383 4.65258 0.12379 4.60782 0.12379 4.56263C0.12379 4.51743 0.133383 4.47267 0.152021 4.43091C0.170658 4.38915 0.197976 4.35121 0.232414 4.31925L2.1933 2.50013L0.232414 0.681001C0.19792 0.64907 0.170553 0.611136 0.15188 0.569374C0.133208 0.527612 0.123596 0.482841 0.123596 0.437626C0.123596 0.392411 0.133208 0.34764 0.15188 0.305878C0.170553 0.264116 0.19792 0.226182 0.232414 0.194251Z" fill="white"/>
</svg>
