<svg width="210" height="103" viewBox="0 0 210 103" fill="none" xmlns="http://www.w3.org/2000/svg">
<path d="M23.0282 56.4141V32.1758C23.0282 31.6419 23.204 31.1927 23.5555 30.8281C23.9071 30.4635 24.3368 30.2812 24.8446 30.2812H32.7938C33.3016 30.2812 33.7834 30.4635 34.2391 30.8281C34.6949 31.1927 35.0009 31.6289 35.1571 32.1367L40.9188 48.8164L46.6805 32.1367C46.8368 31.6289 47.1428 31.1927 47.5985 30.8281C48.0542 30.4635 48.536 30.2812 49.0438 30.2812H56.993C57.5009 30.2812 57.924 30.4635 58.2626 30.8281C58.6141 31.1927 58.7899 31.6419 58.7899 32.1758V56.4141C58.7899 56.9479 58.6076 57.3971 58.243 57.7617C57.8915 58.1133 57.4618 58.2891 56.954 58.2891H53.4384C52.9305 58.2891 52.4943 58.1133 52.1298 57.7617C51.7782 57.3971 51.6024 56.9479 51.6024 56.4141V37.332L44.7079 56.5312C44.5256 57.013 44.2066 57.4297 43.7509 57.7812C43.2951 58.1198 42.8134 58.2891 42.3055 58.2891H39.5126C39.0048 58.2891 38.523 58.1198 38.0673 57.7812C37.6246 57.4297 37.3055 57.013 37.1102 56.5312L30.2352 37.332V56.4141C30.2352 56.9479 30.0529 57.3971 29.6884 57.7617C29.3368 58.1133 28.9071 58.2891 28.3993 58.2891H24.8837C24.3759 58.2891 23.9397 58.1133 23.5751 57.7617C23.2105 57.3971 23.0282 56.9479 23.0282 56.4141ZM65.3719 56.8828C63.6532 55.6849 62.7938 53.9922 62.7938 51.8047C62.7938 49.6172 63.6532 47.9375 65.3719 46.7656C67.1037 45.5938 69.3303 45.0078 72.0516 45.0078H78.5165C78.5165 43.4844 78.1975 42.4232 77.5594 41.8242C76.9214 41.2253 75.8016 40.9258 74.2001 40.9258C72.6115 40.9258 71.4917 41.3229 70.8407 42.1172C70.2027 42.8984 69.4149 43.2891 68.4774 43.2891H65.5673C65.2157 43.2891 64.9227 43.1784 64.6884 42.957C64.467 42.7227 64.3563 42.4362 64.3563 42.0977C64.3563 38.3607 67.9045 36.4922 75.0009 36.4922C78.0998 36.4922 80.5868 37.1888 82.4618 38.582C84.3368 39.9622 85.2743 42.1042 85.2743 45.0078V57.0977C85.2743 57.4492 85.1636 57.7357 84.9423 57.957C84.7209 58.1784 84.4344 58.2891 84.0829 58.2891H80.3134C79.9618 58.2891 79.6753 58.1784 79.454 57.957C79.2326 57.7227 79.1219 57.4362 79.1219 57.0977V56.4922C77.0647 57.9635 74.6884 58.6927 71.993 58.6797C69.3108 58.6797 67.1037 58.0807 65.3719 56.8828ZM72.5204 49.4414C71.6089 49.4414 70.8863 49.6628 70.3524 50.1055C69.8316 50.5482 69.5712 51.1211 69.5712 51.8242C69.5712 52.5273 69.8446 53.1068 70.3915 53.5625C70.9384 54.0182 71.7131 54.2461 72.7157 54.2461C74.7209 54.2461 76.6545 53.6602 78.5165 52.4883V49.4414H72.5204ZM100.294 54.0508L102.97 53.8164H103.692C104.044 53.8164 104.33 53.9271 104.552 54.1484C104.786 54.3698 104.903 54.6562 104.903 55.0078V57.0977C104.903 57.3841 104.786 57.6445 104.552 57.8789C104.33 58.1003 104.044 58.237 103.692 58.2891C102.364 58.5495 100.632 58.6797 98.4969 58.6797C92.898 58.6797 90.0985 55.75 90.0985 49.8906V31.4922C90.0985 31.1406 90.2092 30.8542 90.4305 30.6328C90.6649 30.3984 90.9514 30.2812 91.2899 30.2812H95.6649C96.0035 30.2812 96.2834 30.3984 96.5048 30.6328C96.7391 30.8542 96.8563 31.1406 96.8563 31.4922V38.0156H102.306C102.644 38.0156 102.924 38.1263 103.145 38.3477C103.38 38.569 103.497 38.8555 103.497 39.207V41.5312C103.497 41.8828 103.38 42.1693 103.145 42.3906C102.924 42.612 102.644 42.7227 102.306 42.7227H96.8563V49.8906C96.8563 51.2188 97.1688 52.2474 97.7938 52.9766C98.4188 53.6927 99.2522 54.0508 100.294 54.0508ZM109.278 56.8828C107.559 55.6849 106.7 53.9922 106.7 51.8047C106.7 49.6172 107.559 47.9375 109.278 46.7656C111.01 45.5938 113.237 45.0078 115.958 45.0078H122.423C122.423 43.4844 122.104 42.4232 121.466 41.8242C120.828 41.2253 119.708 40.9258 118.106 40.9258C116.518 40.9258 115.398 41.3229 114.747 42.1172C114.109 42.8984 113.321 43.2891 112.384 43.2891H109.474C109.122 43.2891 108.829 43.1784 108.595 42.957C108.373 42.7227 108.263 42.4362 108.263 42.0977C108.263 38.3607 111.811 36.4922 118.907 36.4922C122.006 36.4922 124.493 37.1888 126.368 38.582C128.243 39.9622 129.181 42.1042 129.181 45.0078V57.0977C129.181 57.4492 129.07 57.7357 128.849 57.957C128.627 58.1784 128.341 58.2891 127.989 58.2891H124.22C123.868 58.2891 123.582 58.1784 123.36 57.957C123.139 57.7227 123.028 57.4362 123.028 57.0977V56.4922C120.971 57.9635 118.595 58.6927 115.899 58.6797C113.217 58.6797 111.01 58.0807 109.278 56.8828ZM116.427 49.4414C115.515 49.4414 114.793 49.6628 114.259 50.1055C113.738 50.5482 113.477 51.1211 113.477 51.8242C113.477 52.5273 113.751 53.1068 114.298 53.5625C114.845 54.0182 115.619 54.2461 116.622 54.2461C118.627 54.2461 120.561 53.6602 122.423 52.4883V49.4414H116.427ZM134.005 57.0977V31.4922C134.005 31.1406 134.115 30.8542 134.337 30.6328C134.571 30.3984 134.858 30.2812 135.196 30.2812H139.571C139.91 30.2812 140.19 30.3984 140.411 30.6328C140.645 30.8542 140.763 31.1406 140.763 31.4922V57.0977C140.763 57.4362 140.645 57.7227 140.411 57.957C140.19 58.1784 139.91 58.2891 139.571 58.2891H135.196C134.858 58.2891 134.571 58.1784 134.337 57.957C134.115 57.7227 134.005 57.4362 134.005 57.0977Z" fill="#EA6A12"/>
<path d="M65.4589 51.1446L47.5553 47.7509C42.2187 46.7393 37.0109 36.7969 22.8946 34.121C12.91 32.2284 2.41342 35.5611 2.95196 42.2529C3.4905 48.9447 14.857 56.4218 24.8417 58.3144C38.958 60.9903 42.6228 52.8142 48.0386 53.7563L65.9422 57.15C73.3447 58.5532 74.9768 59.8764 88.6494 64.4113C95.4461 66.7134 100.583 67.3492 100.044 60.6574C99.4921 53.794 94.3138 52.6435 87.6828 52.4004C74.3278 51.812 72.9405 52.4783 65.4589 51.1446Z" fill="#FFBC6C"/>
<path d="M14.4188 36.2319C25.1096 39.5257 33.973 46.4438 36.5912 53.6987C36.7495 53.5598 37.0008 53.5229 37.08 53.4535C38.5842 52.1334 39.4652 50.4418 39.2995 48.3828C39.1338 46.3238 38.1865 44.0321 36.1824 42.3005C33.2623 39.7194 29.0994 37.494 23.4185 36.4172C20.2268 35.7277 17.0904 35.7245 14.4188 36.2319Z" fill="white"/>
<path d="M29.0691 56.0743C17.1908 53.8227 7.09473 46.333 5.74699 39.0655C4.81076 40.0707 4.39097 41.1739 4.50144 42.5466C4.92951 47.8657 14.905 54.9101 24.7175 56.7702C28.677 57.5207 31.7996 57.3523 34.299 56.8122C34.299 56.8122 34.206 56.7101 34.1268 56.7796C32.5121 56.727 30.7906 56.4007 29.0691 56.0743Z" fill="#EA6A12"/>
<mask id="path-5-outside-1_408_636" maskUnits="userSpaceOnUse" x="19.2117" y="25.4014" width="121" height="32" fill="black">
<rect fill="white" x="19.2117" y="25.4014" width="121" height="32"/>
<path d="M21.0047 53.5264V29.2881C21.0047 28.7542 21.1805 28.305 21.532 27.9404C21.8836 27.5758 22.3133 27.3936 22.8211 27.3936H30.7703C31.2781 27.3936 31.7599 27.5758 32.2156 27.9404C32.6714 28.305 32.9774 28.7412 33.1336 29.249L38.8953 45.9287L44.657 29.249C44.8133 28.7412 45.1193 28.305 45.575 27.9404C46.0307 27.5758 46.5125 27.3936 47.0203 27.3936H54.9695C55.4774 27.3936 55.9005 27.5758 56.2391 27.9404C56.5906 28.305 56.7664 28.7542 56.7664 29.2881V53.5264C56.7664 54.0602 56.5841 54.5094 56.2195 54.874C55.868 55.2256 55.4383 55.4014 54.9305 55.4014H51.4149C50.907 55.4014 50.4708 55.2256 50.1063 54.874C49.7547 54.5094 49.5789 54.0602 49.5789 53.5264V34.4443L42.6844 53.6436C42.5021 54.1253 42.1831 54.542 41.7274 54.8936C41.2716 55.2321 40.7899 55.4014 40.282 55.4014H37.4891C36.9813 55.4014 36.4995 55.2321 36.0438 54.8936C35.6011 54.542 35.282 54.1253 35.0867 53.6436L28.2117 34.4443V53.5264C28.2117 54.0602 28.0294 54.5094 27.6649 54.874C27.3133 55.2256 26.8836 55.4014 26.3758 55.4014H22.8602C22.3524 55.4014 21.9162 55.2256 21.5516 54.874C21.187 54.5094 21.0047 54.0602 21.0047 53.5264ZM63.3484 53.9951C61.6297 52.7972 60.7703 51.1045 60.7703 48.917C60.7703 46.7295 61.6297 45.0498 63.3484 43.8779C65.0802 42.7061 67.3068 42.1201 70.0281 42.1201H76.493C76.493 40.5967 76.174 39.5355 75.5359 38.9365C74.8979 38.3376 73.7781 38.0381 72.1766 38.0381C70.588 38.0381 69.4682 38.4352 68.8172 39.2295C68.1792 40.0107 67.3914 40.4014 66.4539 40.4014H63.5438C63.1922 40.4014 62.8992 40.2907 62.6649 40.0693C62.4435 39.835 62.3328 39.5485 62.3328 39.21C62.3328 35.473 65.881 33.6045 72.9774 33.6045C76.0763 33.6045 78.5633 34.3011 80.4383 35.6943C82.3133 37.0745 83.2508 39.2165 83.2508 42.1201V54.21C83.2508 54.5615 83.1401 54.848 82.9188 55.0693C82.6974 55.2907 82.4109 55.4014 82.0594 55.4014H78.2899C77.9383 55.4014 77.6518 55.2907 77.4305 55.0693C77.2091 54.835 77.0984 54.5485 77.0984 54.21V53.6045C75.0412 55.0758 72.6649 55.805 69.9695 55.792C67.2873 55.792 65.0802 55.193 63.3484 53.9951ZM70.4969 46.5537C69.5854 46.5537 68.8628 46.7751 68.3289 47.2178C67.8081 47.6605 67.5477 48.2334 67.5477 48.9365C67.5477 49.6396 67.8211 50.2191 68.368 50.6748C68.9149 51.1305 69.6896 51.3584 70.6922 51.3584C72.6974 51.3584 74.631 50.7725 76.493 49.6006V46.5537H70.4969ZM98.2703 51.1631L100.946 50.9287H101.669C102.02 50.9287 102.307 51.0394 102.528 51.2607C102.763 51.4821 102.88 51.7686 102.88 52.1201V54.21C102.88 54.4964 102.763 54.7568 102.528 54.9912C102.307 55.2126 102.02 55.3493 101.669 55.4014C100.341 55.6618 98.6089 55.792 96.4734 55.792C90.8745 55.792 88.075 52.8623 88.075 47.0029V28.6045C88.075 28.2529 88.1857 27.9665 88.407 27.7451C88.6414 27.5107 88.9279 27.3936 89.2664 27.3936H93.6414C93.98 27.3936 94.2599 27.5107 94.4813 27.7451C94.7156 27.9665 94.8328 28.2529 94.8328 28.6045V35.1279H100.282C100.621 35.1279 100.901 35.2386 101.122 35.46C101.356 35.6813 101.473 35.9678 101.473 36.3193V38.6436C101.473 38.9951 101.356 39.2816 101.122 39.5029C100.901 39.7243 100.621 39.835 100.282 39.835H94.8328V47.0029C94.8328 48.3311 95.1453 49.3597 95.7703 50.0889C96.3953 50.805 97.2287 51.1631 98.2703 51.1631ZM107.255 53.9951C105.536 52.7972 104.677 51.1045 104.677 48.917C104.677 46.7295 105.536 45.0498 107.255 43.8779C108.986 42.7061 111.213 42.1201 113.934 42.1201H120.399C120.399 40.5967 120.08 39.5355 119.442 38.9365C118.804 38.3376 117.684 38.0381 116.083 38.0381C114.494 38.0381 113.374 38.4352 112.723 39.2295C112.085 40.0107 111.298 40.4014 110.36 40.4014H107.45C107.098 40.4014 106.805 40.2907 106.571 40.0693C106.35 39.835 106.239 39.5485 106.239 39.21C106.239 35.473 109.787 33.6045 116.884 33.6045C119.983 33.6045 122.47 34.3011 124.345 35.6943C126.22 37.0745 127.157 39.2165 127.157 42.1201V54.21C127.157 54.5615 127.046 54.848 126.825 55.0693C126.604 55.2907 126.317 55.4014 125.966 55.4014H122.196C121.845 55.4014 121.558 55.2907 121.337 55.0693C121.115 54.835 121.005 54.5485 121.005 54.21V53.6045C118.947 55.0758 116.571 55.805 113.876 55.792C111.194 55.792 108.986 55.193 107.255 53.9951ZM114.403 46.5537C113.492 46.5537 112.769 46.7751 112.235 47.2178C111.714 47.6605 111.454 48.2334 111.454 48.9365C111.454 49.6396 111.727 50.2191 112.274 50.6748C112.821 51.1305 113.596 51.3584 114.598 51.3584C116.604 51.3584 118.537 50.7725 120.399 49.6006V46.5537H114.403ZM131.981 54.21V28.6045C131.981 28.2529 132.092 27.9665 132.313 27.7451C132.548 27.5107 132.834 27.3936 133.173 27.3936H137.548C137.886 27.3936 138.166 27.5107 138.388 27.7451C138.622 27.9665 138.739 28.2529 138.739 28.6045V54.21C138.739 54.5485 138.622 54.835 138.388 55.0693C138.166 55.2907 137.886 55.4014 137.548 55.4014H133.173C132.834 55.4014 132.548 55.2907 132.313 55.0693C132.092 54.835 131.981 54.5485 131.981 54.21Z"/>
</mask>
<path d="M21.0047 53.5264V29.2881C21.0047 28.7542 21.1805 28.305 21.532 27.9404C21.8836 27.5758 22.3133 27.3936 22.8211 27.3936H30.7703C31.2781 27.3936 31.7599 27.5758 32.2156 27.9404C32.6714 28.305 32.9774 28.7412 33.1336 29.249L38.8953 45.9287L44.657 29.249C44.8133 28.7412 45.1193 28.305 45.575 27.9404C46.0307 27.5758 46.5125 27.3936 47.0203 27.3936H54.9695C55.4774 27.3936 55.9005 27.5758 56.2391 27.9404C56.5906 28.305 56.7664 28.7542 56.7664 29.2881V53.5264C56.7664 54.0602 56.5841 54.5094 56.2195 54.874C55.868 55.2256 55.4383 55.4014 54.9305 55.4014H51.4149C50.907 55.4014 50.4708 55.2256 50.1063 54.874C49.7547 54.5094 49.5789 54.0602 49.5789 53.5264V34.4443L42.6844 53.6436C42.5021 54.1253 42.1831 54.542 41.7274 54.8936C41.2716 55.2321 40.7899 55.4014 40.282 55.4014H37.4891C36.9813 55.4014 36.4995 55.2321 36.0438 54.8936C35.6011 54.542 35.282 54.1253 35.0867 53.6436L28.2117 34.4443V53.5264C28.2117 54.0602 28.0294 54.5094 27.6649 54.874C27.3133 55.2256 26.8836 55.4014 26.3758 55.4014H22.8602C22.3524 55.4014 21.9162 55.2256 21.5516 54.874C21.187 54.5094 21.0047 54.0602 21.0047 53.5264ZM63.3484 53.9951C61.6297 52.7972 60.7703 51.1045 60.7703 48.917C60.7703 46.7295 61.6297 45.0498 63.3484 43.8779C65.0802 42.7061 67.3068 42.1201 70.0281 42.1201H76.493C76.493 40.5967 76.174 39.5355 75.5359 38.9365C74.8979 38.3376 73.7781 38.0381 72.1766 38.0381C70.588 38.0381 69.4682 38.4352 68.8172 39.2295C68.1792 40.0107 67.3914 40.4014 66.4539 40.4014H63.5438C63.1922 40.4014 62.8992 40.2907 62.6649 40.0693C62.4435 39.835 62.3328 39.5485 62.3328 39.21C62.3328 35.473 65.881 33.6045 72.9774 33.6045C76.0763 33.6045 78.5633 34.3011 80.4383 35.6943C82.3133 37.0745 83.2508 39.2165 83.2508 42.1201V54.21C83.2508 54.5615 83.1401 54.848 82.9188 55.0693C82.6974 55.2907 82.4109 55.4014 82.0594 55.4014H78.2899C77.9383 55.4014 77.6518 55.2907 77.4305 55.0693C77.2091 54.835 77.0984 54.5485 77.0984 54.21V53.6045C75.0412 55.0758 72.6649 55.805 69.9695 55.792C67.2873 55.792 65.0802 55.193 63.3484 53.9951ZM70.4969 46.5537C69.5854 46.5537 68.8628 46.7751 68.3289 47.2178C67.8081 47.6605 67.5477 48.2334 67.5477 48.9365C67.5477 49.6396 67.8211 50.2191 68.368 50.6748C68.9149 51.1305 69.6896 51.3584 70.6922 51.3584C72.6974 51.3584 74.631 50.7725 76.493 49.6006V46.5537H70.4969ZM98.2703 51.1631L100.946 50.9287H101.669C102.02 50.9287 102.307 51.0394 102.528 51.2607C102.763 51.4821 102.88 51.7686 102.88 52.1201V54.21C102.88 54.4964 102.763 54.7568 102.528 54.9912C102.307 55.2126 102.02 55.3493 101.669 55.4014C100.341 55.6618 98.6089 55.792 96.4734 55.792C90.8745 55.792 88.075 52.8623 88.075 47.0029V28.6045C88.075 28.2529 88.1857 27.9665 88.407 27.7451C88.6414 27.5107 88.9279 27.3936 89.2664 27.3936H93.6414C93.98 27.3936 94.2599 27.5107 94.4813 27.7451C94.7156 27.9665 94.8328 28.2529 94.8328 28.6045V35.1279H100.282C100.621 35.1279 100.901 35.2386 101.122 35.46C101.356 35.6813 101.473 35.9678 101.473 36.3193V38.6436C101.473 38.9951 101.356 39.2816 101.122 39.5029C100.901 39.7243 100.621 39.835 100.282 39.835H94.8328V47.0029C94.8328 48.3311 95.1453 49.3597 95.7703 50.0889C96.3953 50.805 97.2287 51.1631 98.2703 51.1631ZM107.255 53.9951C105.536 52.7972 104.677 51.1045 104.677 48.917C104.677 46.7295 105.536 45.0498 107.255 43.8779C108.986 42.7061 111.213 42.1201 113.934 42.1201H120.399C120.399 40.5967 120.08 39.5355 119.442 38.9365C118.804 38.3376 117.684 38.0381 116.083 38.0381C114.494 38.0381 113.374 38.4352 112.723 39.2295C112.085 40.0107 111.298 40.4014 110.36 40.4014H107.45C107.098 40.4014 106.805 40.2907 106.571 40.0693C106.35 39.835 106.239 39.5485 106.239 39.21C106.239 35.473 109.787 33.6045 116.884 33.6045C119.983 33.6045 122.47 34.3011 124.345 35.6943C126.22 37.0745 127.157 39.2165 127.157 42.1201V54.21C127.157 54.5615 127.046 54.848 126.825 55.0693C126.604 55.2907 126.317 55.4014 125.966 55.4014H122.196C121.845 55.4014 121.558 55.2907 121.337 55.0693C121.115 54.835 121.005 54.5485 121.005 54.21V53.6045C118.947 55.0758 116.571 55.805 113.876 55.792C111.194 55.792 108.986 55.193 107.255 53.9951ZM114.403 46.5537C113.492 46.5537 112.769 46.7751 112.235 47.2178C111.714 47.6605 111.454 48.2334 111.454 48.9365C111.454 49.6396 111.727 50.2191 112.274 50.6748C112.821 51.1305 113.596 51.3584 114.598 51.3584C116.604 51.3584 118.537 50.7725 120.399 49.6006V46.5537H114.403ZM131.981 54.21V28.6045C131.981 28.2529 132.092 27.9665 132.313 27.7451C132.548 27.5107 132.834 27.3936 133.173 27.3936H137.548C137.886 27.3936 138.166 27.5107 138.388 27.7451C138.622 27.9665 138.739 28.2529 138.739 28.6045V54.21C138.739 54.5485 138.622 54.835 138.388 55.0693C138.166 55.2907 137.886 55.4014 137.548 55.4014H133.173C132.834 55.4014 132.548 55.2907 132.313 55.0693C132.092 54.835 131.981 54.5485 131.981 54.21Z" fill="#FFFDFD"/>
<path d="M33.1336 29.249L32.1778 29.5431L32.1828 29.5594L32.1884 29.5755L33.1336 29.249ZM38.8953 45.9287L37.9501 46.2552L38.8953 48.9915L39.8405 46.2552L38.8953 45.9287ZM44.657 29.249L45.6022 29.5755L45.6078 29.5594L45.6128 29.5431L44.657 29.249ZM56.2391 27.9404L55.5063 28.6209L55.5127 28.6278L55.5192 28.6346L56.2391 27.9404ZM56.2195 54.874L55.5124 54.1669L56.2195 54.874ZM50.1063 54.874L49.3864 55.5682L49.399 55.5812L49.4121 55.5939L50.1063 54.874ZM49.5789 34.4443H50.5789L48.6378 34.1064L49.5789 34.4443ZM42.6844 53.6436L43.6197 53.9974L43.6227 53.9895L43.6255 53.9815L42.6844 53.6436ZM41.7274 54.8936L42.3237 55.6963L42.331 55.6909L42.3382 55.6853L41.7274 54.8936ZM36.0438 54.8936L35.4219 55.6767L35.4345 55.6867L35.4474 55.6963L36.0438 54.8936ZM35.0867 53.6436L34.1453 53.9807L34.1522 54.0001L34.16 54.0193L35.0867 53.6436ZM28.2117 34.4443L29.1532 34.1072L27.2117 34.4443H28.2117ZM27.6649 54.874L26.9577 54.1669L27.6649 54.874ZM21.5516 54.874L20.8445 55.5811L20.8509 55.5876L20.8574 55.5939L21.5516 54.874ZM22.0047 53.5264V29.2881H20.0047V53.5264H22.0047ZM22.0047 29.2881C22.0047 28.9977 22.0905 28.8019 22.2519 28.6346L20.8122 27.2463C20.2704 27.8081 20.0047 28.5108 20.0047 29.2881H22.0047ZM22.2519 28.6346C22.4144 28.466 22.584 28.3936 22.8211 28.3936V26.3936C22.0426 26.3936 21.3528 26.6857 20.8122 27.2463L22.2519 28.6346ZM22.8211 28.3936H30.7703V26.3936H22.8211V28.3936ZM30.7703 28.3936C31.0178 28.3936 31.2847 28.4763 31.5909 28.7213L32.8403 27.1596C32.2351 26.6754 31.5384 26.3936 30.7703 26.3936V28.3936ZM31.5909 28.7213C31.9061 28.9734 32.0864 29.2459 32.1778 29.5431L34.0894 28.9549C33.8683 28.2365 33.4367 27.6366 32.8403 27.1596L31.5909 28.7213ZM32.1884 29.5755L37.9501 46.2552L39.8405 45.6022L34.0788 28.9225L32.1884 29.5755ZM39.8405 46.2552L45.6022 29.5755L43.7118 28.9225L37.9501 45.6022L39.8405 46.2552ZM45.6128 29.5431C45.7043 29.2459 45.8846 28.9734 46.1997 28.7213L44.9503 27.1596C44.354 27.6366 43.9223 28.2365 43.7013 28.9549L45.6128 29.5431ZM46.1997 28.7213C46.5059 28.4763 46.7728 28.3936 47.0203 28.3936V26.3936C46.2522 26.3936 45.5556 26.6754 44.9503 27.1596L46.1997 28.7213ZM47.0203 28.3936H54.9695V26.3936H47.0203V28.3936ZM54.9695 28.3936C55.2058 28.3936 55.3613 28.4648 55.5063 28.6209L56.9719 27.26C56.4397 26.6869 55.7489 26.3936 54.9695 26.3936V28.3936ZM55.5192 28.6346C55.6806 28.8019 55.7664 28.9977 55.7664 29.2881H57.7664C57.7664 28.5108 57.5007 27.8081 56.9589 27.2463L55.5192 28.6346ZM55.7664 29.2881V53.5264H57.7664V29.2881H55.7664ZM55.7664 53.5264C55.7664 53.8055 55.6822 53.9972 55.5124 54.1669L56.9267 55.5811C57.4861 55.0217 57.7664 54.3149 57.7664 53.5264H55.7664ZM55.5124 54.1669C55.3529 54.3265 55.1794 54.4014 54.9305 54.4014V56.4014C55.6972 56.4014 56.3831 56.1247 56.9267 55.5811L55.5124 54.1669ZM54.9305 54.4014H51.4149V56.4014H54.9305V54.4014ZM51.4149 54.4014C51.1652 54.4014 50.978 54.3255 50.8004 54.1542L49.4121 55.5939C49.9636 56.1257 50.6489 56.4014 51.4149 56.4014V54.4014ZM50.8261 54.1799C50.6647 54.0125 50.5789 53.8168 50.5789 53.5264H48.5789C48.5789 54.3037 48.8447 55.0063 49.3864 55.5682L50.8261 54.1799ZM50.5789 53.5264V34.4443H48.5789V53.5264H50.5789ZM48.6378 34.1064L41.7432 53.3056L43.6255 53.9815L50.5201 34.7823L48.6378 34.1064ZM41.7491 53.2897C41.6398 53.5785 41.4434 53.8497 41.1166 54.1018L42.3382 55.6853C42.9228 55.2343 43.3644 54.6722 43.6197 53.9974L41.7491 53.2897ZM41.131 54.0908C40.8264 54.3171 40.5499 54.4014 40.282 54.4014V56.4014C41.0298 56.4014 41.7169 56.1471 42.3237 55.6963L41.131 54.0908ZM40.282 54.4014H37.4891V56.4014H40.282V54.4014ZM37.4891 54.4014C37.2212 54.4014 36.9447 54.3171 36.6401 54.0908L35.4474 55.6963C36.0543 56.1471 36.7413 56.4014 37.4891 56.4014V54.4014ZM36.6656 54.1104C36.3458 53.8565 36.1384 53.576 36.0135 53.2678L34.16 54.0193C34.4257 54.6746 34.8563 55.2275 35.4219 55.6767L36.6656 54.1104ZM36.0282 53.3064L29.1532 34.1072L27.2703 34.7815L34.1453 53.9807L36.0282 53.3064ZM27.2117 34.4443V53.5264H29.2117V34.4443H27.2117ZM27.2117 53.5264C27.2117 53.8055 27.1275 53.9972 26.9577 54.1669L28.372 55.5811C28.9314 55.0217 29.2117 54.3149 29.2117 53.5264H27.2117ZM26.9577 54.1669C26.7982 54.3265 26.6247 54.4014 26.3758 54.4014V56.4014C27.1425 56.4014 27.8284 56.1247 28.372 55.5811L26.9577 54.1669ZM26.3758 54.4014H22.8602V56.4014H26.3758V54.4014ZM22.8602 54.4014C22.6105 54.4014 22.4234 54.3255 22.2457 54.1542L20.8574 55.5939C21.409 56.1257 22.0942 56.4014 22.8602 56.4014V54.4014ZM22.2587 54.1669C22.0889 53.9972 22.0047 53.8055 22.0047 53.5264H20.0047C20.0047 54.3149 20.2851 55.0217 20.8445 55.5811L22.2587 54.1669ZM63.3484 53.9951L62.7767 54.8155L62.7796 54.8175L63.3484 53.9951ZM63.3484 43.8779L62.788 43.0497L62.7851 43.0517L63.3484 43.8779ZM76.493 42.1201V43.1201H77.493V42.1201H76.493ZM68.8172 39.2295L68.0438 38.5956L68.0427 38.597L68.8172 39.2295ZM62.6649 40.0693L61.9378 40.756L61.9575 40.7767L61.9782 40.7963L62.6649 40.0693ZM80.4383 35.6943L79.8419 36.497L79.8455 36.4997L80.4383 35.6943ZM77.4305 55.0693L76.7035 55.756L76.7133 55.7663L76.7234 55.7764L77.4305 55.0693ZM77.0984 53.6045H78.0984V51.6599L76.5167 52.7911L77.0984 53.6045ZM69.9695 55.792L69.9744 54.792H69.9695V55.792ZM68.3289 47.2178L67.6905 46.448L67.6813 46.4558L68.3289 47.2178ZM68.368 50.6748L69.0082 49.9066L68.368 50.6748ZM76.493 49.6006L77.0256 50.4469L77.493 50.1528V49.6006H76.493ZM76.493 46.5537H77.493V45.5537H76.493V46.5537ZM63.9202 53.1747C62.4835 52.1734 61.7703 50.7946 61.7703 48.917H59.7703C59.7703 51.4144 60.7759 53.421 62.7767 54.8155L63.9202 53.1747ZM61.7703 48.917C61.7703 47.0399 62.4826 45.6786 63.9118 44.7042L62.7851 43.0517C60.7768 44.421 59.7703 46.4191 59.7703 48.917H61.7703ZM63.9089 44.7061C65.4319 43.6755 67.4469 43.1201 70.0281 43.1201V41.1201C67.1666 41.1201 64.7285 41.7366 62.788 43.0497L63.9089 44.7061ZM70.0281 43.1201H76.493V41.1201H70.0281V43.1201ZM77.493 42.1201C77.493 40.5121 77.1663 39.0954 76.2204 38.2075L74.8515 39.6656C75.1817 39.9755 75.493 40.6813 75.493 42.1201H77.493ZM76.2204 38.2075C75.294 37.3378 73.8429 37.0381 72.1766 37.0381V39.0381C73.7134 39.0381 74.5018 39.3373 74.8515 39.6656L76.2204 38.2075ZM72.1766 37.0381C70.4535 37.0381 68.9692 37.4666 68.0438 38.5956L69.5906 39.8634C69.9673 39.4039 70.7225 39.0381 72.1766 39.0381V37.0381ZM68.0427 38.597C67.5781 39.1658 67.066 39.4014 66.4539 39.4014V41.4014C67.7168 41.4014 68.7803 40.8556 69.5917 39.862L68.0427 38.597ZM66.4539 39.4014H63.5438V41.4014H66.4539V39.4014ZM63.5438 39.4014C63.4223 39.4014 63.3827 39.3718 63.3515 39.3423L61.9782 40.7963C62.4158 41.2096 62.9621 41.4014 63.5438 41.4014V39.4014ZM63.3919 39.3827C63.3553 39.344 63.3328 39.3073 63.3328 39.21H61.3328C61.3328 39.7897 61.5317 40.3259 61.9378 40.756L63.3919 39.3827ZM63.3328 39.21C63.3328 38.4404 63.5132 37.8135 63.8431 37.2924C64.1753 36.7676 64.6953 36.2933 65.4599 35.8907C67.0186 35.0699 69.4844 34.6045 72.9774 34.6045V32.6045C69.374 32.6045 66.5175 33.0734 64.528 34.121C63.5185 34.6527 62.708 35.3462 62.1532 36.2227C61.5959 37.1031 61.3328 38.111 61.3328 39.21H63.3328ZM72.9774 34.6045C75.9312 34.6045 78.188 35.2681 79.8419 36.497L81.0347 34.8917C78.9386 33.3342 76.2214 32.6045 72.9774 32.6045V34.6045ZM79.8455 36.4997C81.4013 37.6449 82.2508 39.4469 82.2508 42.1201H84.2508C84.2508 38.9861 83.2253 36.5041 81.0311 34.889L79.8455 36.4997ZM82.2508 42.1201V54.21H84.2508V42.1201H82.2508ZM82.2508 54.21C82.2508 54.3319 82.2217 54.3522 82.2117 54.3622L83.6259 55.7764C84.0585 55.3438 84.2508 54.7911 84.2508 54.21H82.2508ZM82.2117 54.3622C82.2016 54.3723 82.1814 54.4014 82.0594 54.4014V56.4014C82.6405 56.4014 83.1932 56.2091 83.6259 55.7764L82.2117 54.3622ZM82.0594 54.4014H78.2899V56.4014H82.0594V54.4014ZM78.2899 54.4014C78.1679 54.4014 78.1476 54.3723 78.1376 54.3622L76.7234 55.7764C77.156 56.2091 77.7087 56.4014 78.2899 56.4014V54.4014ZM78.1575 54.3827C78.1209 54.344 78.0984 54.3073 78.0984 54.21H76.0984C76.0984 54.7897 76.2973 55.3259 76.7035 55.756L78.1575 54.3827ZM78.0984 54.21V53.6045H76.0984V54.21H78.0984ZM76.5167 52.7911C74.642 54.1319 72.474 54.8041 69.9744 54.792L69.9647 56.792C72.8557 56.8059 75.4403 56.0198 77.6802 54.4179L76.5167 52.7911ZM69.9695 54.792C67.4349 54.792 65.4414 54.2269 63.9173 53.1727L62.7796 54.8175C64.7191 56.1591 67.1396 56.792 69.9695 56.792V54.792ZM70.4969 45.5537C69.4264 45.5537 68.4536 45.8152 67.6906 46.448L68.9673 47.9875C69.2719 47.7349 69.7445 47.5537 70.4969 47.5537V45.5537ZM67.6813 46.4558C66.9297 47.0947 66.5477 47.9497 66.5477 48.9365H68.5477C68.5477 48.5171 68.6865 48.2263 68.9766 47.9797L67.6813 46.4558ZM66.5477 48.9365C66.5477 49.9407 66.9562 50.8 67.7278 51.443L69.0082 49.9066C68.686 49.6381 68.5477 49.3386 68.5477 48.9365H66.5477ZM67.7278 51.443C68.5155 52.0994 69.5499 52.3584 70.6922 52.3584V50.3584C69.8293 50.3584 69.3142 50.1616 69.0082 49.9066L67.7278 51.443ZM70.6922 52.3584C72.904 52.3584 75.0202 51.7091 77.0256 50.4469L75.9603 48.7543C74.2418 49.8358 72.4908 50.3584 70.6922 50.3584V52.3584ZM77.493 49.6006V46.5537H75.493V49.6006H77.493ZM76.493 45.5537H70.4969V47.5537H76.493V45.5537ZM98.2703 51.1631V52.1631H98.314L98.3576 52.1593L98.2703 51.1631ZM100.946 50.9287V49.9287H100.902L100.859 49.9325L100.946 50.9287ZM102.528 51.2607L101.821 51.9678L101.831 51.9779L101.842 51.9878L102.528 51.2607ZM102.528 54.9912L103.235 55.6983L102.528 54.9912ZM101.669 55.4014L101.522 54.4122L101.499 54.4156L101.476 54.4201L101.669 55.4014ZM88.407 27.7451L89.1142 28.4522L88.407 27.7451ZM94.4813 27.7451L93.7542 28.4317L93.7739 28.4525L93.7946 28.4721L94.4813 27.7451ZM94.8328 35.1279H93.8328V36.1279H94.8328V35.1279ZM101.122 35.46L100.415 36.1671L100.425 36.1772L100.435 36.187L101.122 35.46ZM101.122 39.5029L100.435 38.7759L100.425 38.7857L100.415 38.7958L101.122 39.5029ZM94.8328 39.835V38.835H93.8328V39.835H94.8328ZM95.7703 50.0889L95.011 50.7397L95.0169 50.7464L95.7703 50.0889ZM98.3576 52.1593L101.033 51.9249L100.859 49.9325L98.1831 50.1669L98.3576 52.1593ZM100.946 51.9287H101.669V49.9287H100.946V51.9287ZM101.669 51.9287C101.791 51.9287 101.811 51.9578 101.821 51.9678L103.235 50.5536C102.803 50.121 102.25 49.9287 101.669 49.9287V51.9287ZM101.842 51.9878C101.86 52.0048 101.864 52.0143 101.866 52.0202C101.869 52.028 101.88 52.0566 101.88 52.1201H103.88C103.88 51.5211 103.668 50.9622 103.215 50.5337L101.842 51.9878ZM101.88 52.1201V54.21H103.88V52.1201H101.88ZM101.88 54.21C101.88 54.2129 101.879 54.2126 101.88 54.2104C101.88 54.2082 101.881 54.2077 101.88 54.2098C101.878 54.2132 101.866 54.2391 101.821 54.2841L103.235 55.6983C103.625 55.3083 103.88 54.8036 103.88 54.21H101.88ZM101.821 54.2841C101.772 54.3336 101.691 54.3871 101.522 54.4122L101.815 56.3906C102.349 56.3115 102.842 56.0915 103.235 55.6983L101.821 54.2841ZM101.476 54.4201C100.237 54.6631 98.5767 54.792 96.4734 54.792V56.792C98.641 56.792 100.444 56.6605 101.861 56.3827L101.476 54.4201ZM96.4734 54.792C93.84 54.792 92.0457 54.1053 90.8976 52.9039C89.7414 51.6939 89.075 49.7895 89.075 47.0029H87.075C87.075 50.0757 87.8083 52.5658 89.4516 54.2856C91.1031 56.0138 93.5079 56.792 96.4734 56.792V54.792ZM89.075 47.0029V28.6045H87.075V47.0029H89.075ZM89.075 28.6045C89.075 28.4825 89.1041 28.4623 89.1142 28.4522L87.6999 27.038C87.2673 27.4707 87.075 28.0234 87.075 28.6045H89.075ZM89.1142 28.4522C89.1565 28.4098 89.1867 28.3936 89.2664 28.3936V26.3936C88.669 26.3936 88.1263 26.6117 87.6999 27.038L89.1142 28.4522ZM89.2664 28.3936H93.6414V26.3936H89.2664V28.3936ZM93.6414 28.3936C93.6934 28.3936 93.7149 28.4021 93.7191 28.4039C93.7224 28.4052 93.7334 28.4097 93.7542 28.4317L95.2083 27.0585C94.7876 26.6131 94.2396 26.3936 93.6414 26.3936V28.3936ZM93.7946 28.4721C93.8127 28.4892 93.817 28.4987 93.8194 28.5046C93.8226 28.5124 93.8328 28.541 93.8328 28.6045H95.8328C95.8328 28.0055 95.6216 27.4466 95.1679 27.0181L93.7946 28.4721ZM93.8328 28.6045V35.1279H95.8328V28.6045H93.8328ZM94.8328 36.1279H100.282V34.1279H94.8328V36.1279ZM100.282 36.1279C100.341 36.1279 100.369 36.1372 100.378 36.1409C100.386 36.1439 100.397 36.1492 100.415 36.1671L101.829 34.7529C101.404 34.3277 100.862 34.1279 100.282 34.1279V36.1279ZM100.435 36.187C100.453 36.204 100.458 36.2135 100.46 36.2195C100.463 36.2273 100.473 36.2559 100.473 36.3193H102.473C102.473 35.7203 102.262 35.1614 101.809 34.7329L100.435 36.187ZM100.473 36.3193V38.6436H102.473V36.3193H100.473ZM100.473 38.6436C100.473 38.707 100.463 38.7356 100.46 38.7434C100.458 38.7493 100.453 38.7589 100.435 38.7759L101.809 40.2299C102.262 39.8015 102.473 39.2426 102.473 38.6436H100.473ZM100.415 38.7958C100.397 38.8137 100.386 38.819 100.378 38.822C100.369 38.8256 100.341 38.835 100.282 38.835V40.835C100.862 40.835 101.404 40.6351 101.829 40.21L100.415 38.7958ZM100.282 38.835H94.8328V40.835H100.282V38.835ZM93.8328 39.835V47.0029H95.8328V39.835H93.8328ZM93.8328 47.0029C93.8328 48.4786 94.1802 49.7703 95.0111 50.7397L96.5296 49.4381C96.1104 48.9491 95.8328 48.1835 95.8328 47.0029H93.8328ZM95.0169 50.7464C95.8514 51.7026 96.971 52.1631 98.2703 52.1631V50.1631C97.4863 50.1631 96.9393 49.9075 96.5238 49.4313L95.0169 50.7464ZM107.255 53.9951L106.683 54.8155L106.686 54.8175L107.255 53.9951ZM107.255 43.8779L106.694 43.0497L106.691 43.0517L107.255 43.8779ZM120.399 42.1201V43.1201H121.399V42.1201H120.399ZM112.723 39.2295L111.95 38.5956L111.949 38.597L112.723 39.2295ZM106.571 40.0693L105.844 40.756L105.864 40.7767L105.884 40.7963L106.571 40.0693ZM124.345 35.6943L123.748 36.497L123.752 36.4997L124.345 35.6943ZM121.337 55.0693L120.61 55.756L120.62 55.7663L120.63 55.7764L121.337 55.0693ZM121.005 53.6045H122.005V51.6599L120.423 52.7911L121.005 53.6045ZM113.876 55.792L113.881 54.792H113.876V55.792ZM112.235 47.2178L111.597 46.448L111.588 46.4558L112.235 47.2178ZM112.274 50.6748L112.914 49.9066L112.274 50.6748ZM120.399 49.6006L120.932 50.4469L121.399 50.1528V49.6006H120.399ZM120.399 46.5537H121.399V45.5537H120.399V46.5537ZM107.826 53.1747C106.39 52.1734 105.677 50.7946 105.677 48.917H103.677C103.677 51.4144 104.682 53.421 106.683 54.8155L107.826 53.1747ZM105.677 48.917C105.677 47.0399 106.389 45.6786 107.818 44.7042L106.691 43.0517C104.683 44.421 103.677 46.4191 103.677 48.917H105.677ZM107.815 44.7061C109.338 43.6755 111.353 43.1201 113.934 43.1201V41.1201C111.073 41.1201 108.635 41.7366 106.694 43.0497L107.815 44.7061ZM113.934 43.1201H120.399V41.1201H113.934V43.1201ZM121.399 42.1201C121.399 40.5121 121.073 39.0954 120.127 38.2075L118.758 39.6656C119.088 39.9755 119.399 40.6813 119.399 42.1201H121.399ZM120.127 38.2075C119.2 37.3378 117.749 37.0381 116.083 37.0381V39.0381C117.62 39.0381 118.408 39.3373 118.758 39.6656L120.127 38.2075ZM116.083 37.0381C114.36 37.0381 112.875 37.4666 111.95 38.5956L113.497 39.8634C113.874 39.4039 114.629 39.0381 116.083 39.0381V37.0381ZM111.949 38.597C111.484 39.1658 110.972 39.4014 110.36 39.4014V41.4014C111.623 41.4014 112.687 40.8556 113.498 39.862L111.949 38.597ZM110.36 39.4014H107.45V41.4014H110.36V39.4014ZM107.45 39.4014C107.329 39.4014 107.289 39.3718 107.258 39.3423L105.884 40.7963C106.322 41.2096 106.868 41.4014 107.45 41.4014V39.4014ZM107.298 39.3827C107.262 39.344 107.239 39.3073 107.239 39.21H105.239C105.239 39.7897 105.438 40.3259 105.844 40.756L107.298 39.3827ZM107.239 39.21C107.239 38.4404 107.42 37.8135 107.749 37.2924C108.082 36.7676 108.602 36.2933 109.366 35.8907C110.925 35.0699 113.391 34.6045 116.884 34.6045V32.6045C113.28 32.6045 110.424 33.0734 108.434 34.121C107.425 34.6527 106.614 35.3462 106.059 36.2227C105.502 37.1031 105.239 38.111 105.239 39.21H107.239ZM116.884 34.6045C119.837 34.6045 122.094 35.2681 123.748 36.497L124.941 34.8917C122.845 33.3342 120.128 32.6045 116.884 32.6045V34.6045ZM123.752 36.4997C125.308 37.6449 126.157 39.4469 126.157 42.1201H128.157C128.157 38.9861 127.132 36.5041 124.937 34.889L123.752 36.4997ZM126.157 42.1201V54.21H128.157V42.1201H126.157ZM126.157 54.21C126.157 54.3319 126.128 54.3522 126.118 54.3622L127.532 55.7764C127.965 55.3438 128.157 54.7911 128.157 54.21H126.157ZM126.118 54.3622C126.108 54.3723 126.088 54.4014 125.966 54.4014V56.4014C126.547 56.4014 127.099 56.2091 127.532 55.7764L126.118 54.3622ZM125.966 54.4014H122.196V56.4014H125.966V54.4014ZM122.196 54.4014C122.074 54.4014 122.054 54.3723 122.044 54.3622L120.63 55.7764C121.062 56.2091 121.615 56.4014 122.196 56.4014V54.4014ZM122.064 54.3827C122.027 54.344 122.005 54.3073 122.005 54.21H120.005C120.005 54.7897 120.204 55.3259 120.61 55.756L122.064 54.3827ZM122.005 54.21V53.6045H120.005V54.21H122.005ZM120.423 52.7911C118.548 54.1319 116.38 54.8041 113.881 54.792L113.871 56.792C116.762 56.8059 119.347 56.0198 121.586 54.4179L120.423 52.7911ZM113.876 54.792C111.341 54.792 109.348 54.2269 107.824 53.1727L106.686 54.8175C108.625 56.1591 111.046 56.792 113.876 56.792V54.792ZM114.403 45.5537C113.333 45.5537 112.36 45.8152 111.597 46.448L112.874 47.9875C113.178 47.7349 113.651 47.5537 114.403 47.5537V45.5537ZM111.588 46.4558C110.836 47.0947 110.454 47.9497 110.454 48.9365H112.454C112.454 48.5171 112.593 48.2263 112.883 47.9797L111.588 46.4558ZM110.454 48.9365C110.454 49.9407 110.862 50.8 111.634 51.443L112.914 49.9066C112.592 49.6381 112.454 49.3386 112.454 48.9365H110.454ZM111.634 51.443C112.422 52.0994 113.456 52.3584 114.598 52.3584V50.3584C113.736 50.3584 113.22 50.1616 112.914 49.9066L111.634 51.443ZM114.598 52.3584C116.81 52.3584 118.926 51.7091 120.932 50.4469L119.867 48.7543C118.148 49.8358 116.397 50.3584 114.598 50.3584V52.3584ZM121.399 49.6006V46.5537H119.399V49.6006H121.399ZM120.399 45.5537H114.403V47.5537H120.399V45.5537ZM132.313 27.7451L133.02 28.4522L132.313 27.7451ZM138.388 27.7451L137.66 28.4317L137.68 28.4525L137.701 28.4721L138.388 27.7451ZM138.388 55.0693L137.68 54.3622L138.388 55.0693ZM132.313 55.0693L131.586 55.756L131.606 55.7767L131.627 55.7963L132.313 55.0693ZM132.981 54.21V28.6045H130.981V54.21H132.981ZM132.981 28.6045C132.981 28.4825 133.01 28.4623 133.02 28.4522L131.606 27.038C131.174 27.4707 130.981 28.0234 130.981 28.6045H132.981ZM133.02 28.4522C133.063 28.4098 133.093 28.3936 133.173 28.3936V26.3936C132.575 26.3936 132.033 26.6117 131.606 27.038L133.02 28.4522ZM133.173 28.3936H137.548V26.3936H133.173V28.3936ZM137.548 28.3936C137.6 28.3936 137.621 28.4021 137.625 28.4039C137.629 28.4052 137.64 28.4097 137.66 28.4317L139.115 27.0585C138.694 26.6131 138.146 26.3936 137.548 26.3936V28.3936ZM137.701 28.4721C137.719 28.4892 137.723 28.4987 137.726 28.5046C137.729 28.5124 137.739 28.541 137.739 28.6045H139.739C139.739 28.0055 139.528 27.4466 139.074 27.0181L137.701 28.4721ZM137.739 28.6045V54.21H139.739V28.6045H137.739ZM137.739 54.21C137.739 54.2896 137.723 54.3198 137.68 54.3622L139.095 55.7764C139.521 55.3501 139.739 54.8074 139.739 54.21H137.739ZM137.68 54.3622C137.663 54.3801 137.652 54.3854 137.644 54.3884C137.635 54.392 137.607 54.4014 137.548 54.4014V56.4014C138.128 56.4014 138.67 56.2015 139.095 55.7764L137.68 54.3622ZM137.548 54.4014H133.173V56.4014H137.548V54.4014ZM133.173 54.4014C133.075 54.4014 133.039 54.3789 133 54.3423L131.627 55.7963C132.057 56.2025 132.593 56.4014 133.173 56.4014V54.4014ZM133.04 54.3827C133.004 54.344 132.981 54.3073 132.981 54.21H130.981C130.981 54.7897 131.18 55.3259 131.586 55.756L133.04 54.3827Z" fill="#EA6A12" mask="url(#path-5-outside-1_408_636)"/>
</svg>
