<svg width="24" height="24" viewBox="0 0 24 24" fill="none" xmlns="http://www.w3.org/2000/svg">
<path d="M19.5562 0.75875L12.3875 0.75C12.0619 0.750158 11.7396 0.814867 11.4392 0.940384C11.1389 1.0659 10.8664 1.24974 10.6375 1.48125L1.47497 10.7238C1.01503 11.1913 0.757263 11.821 0.757263 12.4769C0.757263 13.1328 1.01503 13.7624 1.47497 14.23L9.69123 22.5188C9.91968 22.7508 10.1921 22.935 10.4926 23.0606C10.7931 23.1861 11.1156 23.2505 11.4412 23.25C11.7668 23.2498 12.0891 23.1851 12.3895 23.0596C12.6898 22.9341 12.9623 22.7503 13.1912 22.5188L22.4525 13.1725C22.7032 12.9393 22.9034 12.6571 23.0406 12.3434C23.1777 12.0297 23.249 11.6911 23.25 11.3488V4.47375C23.2506 3.49194 22.8624 2.54984 22.1701 1.85361C21.4779 1.15738 20.538 0.763708 19.5562 0.75875ZM16.4912 8.80625C16.1597 8.80625 15.8418 8.67455 15.6073 8.44013C15.3729 8.20571 15.2412 7.88777 15.2412 7.55625C15.2412 7.22473 15.3729 6.90679 15.6073 6.67237C15.8418 6.43795 16.1597 6.30625 16.4912 6.30625C16.8227 6.30625 17.1407 6.43795 17.3751 6.67237C17.6095 6.90679 17.7412 7.22473 17.7412 7.55625C17.7412 7.88777 17.6095 8.20571 17.3751 8.44013C17.1407 8.67455 16.8227 8.80625 16.4912 8.80625Z" fill="#FFD233"/>
</svg>
