<svg width="20" height="20" viewBox="0 0 20 20" fill="none" xmlns="http://www.w3.org/2000/svg">
<path fill-rule="evenodd" clip-rule="evenodd" d="M9.67843 17.5876C9.78454 17.7671 9.93607 17.9156 10.1178 18.018C10.2995 18.1204 10.505 18.1731 10.7135 18.1709C10.9221 18.1686 11.1264 18.1115 11.3058 18.0052C11.4853 17.899 11.6336 17.7473 11.7359 17.5655L18.4439 5.65436C18.5462 5.47273 18.5988 5.26738 18.5966 5.05895C18.5944 4.85051 18.5373 4.64634 18.4312 4.46694C18.325 4.28755 18.1735 4.13925 17.9919 4.03697C17.8103 3.93468 17.6049 3.882 17.3965 3.88423L3.72675 4.03071C3.51831 4.03295 3.31414 4.09001 3.13475 4.19617C2.95536 4.30232 2.80707 4.45383 2.70479 4.63546C2.60251 4.81709 2.54984 5.02244 2.55207 5.23087C2.55431 5.43931 2.61137 5.64348 2.71752 5.82288L9.67923 17.5875L9.67843 17.5876Z" fill="#8A8A8A"/>
</svg>
