<svg width="14" height="24" viewBox="0 0 14 24" fill="none" xmlns="http://www.w3.org/2000/svg">
<path d="M13.005 22.4876C13.1922 22.3077 13.3423 22.0925 13.4466 21.8542C13.551 21.6159 13.6076 21.3593 13.6131 21.099C13.6186 20.8387 13.5731 20.5799 13.4789 20.3373C13.3848 20.0947 13.2441 19.8732 13.0647 19.6853L5.55672 11.8081L13.3931 4.26266C13.7707 3.89904 13.9891 3.39953 14.0003 2.87399C14.0115 2.34845 13.8145 1.83995 13.4527 1.46034C13.0909 1.08073 12.5939 0.861124 12.071 0.849816C11.5482 0.838508 11.0423 1.03643 10.6647 1.40004L1.39435 10.3262C1.20713 10.5061 1.05705 10.7213 0.952702 10.9596C0.848356 11.1979 0.791795 11.4545 0.786252 11.7148C0.78071 11.9751 0.826296 12.234 0.920403 12.4765C1.01451 12.7191 1.15529 12.9407 1.33468 13.1285L10.2165 22.4472C10.9518 23.2187 12.2173 23.2461 13.005 22.4876Z" fill="#204945"/>
</svg>
