<svg width="14" height="23" viewBox="0 0 14 23" fill="none" xmlns="http://www.w3.org/2000/svg">
<path d="M0.584189 0.611035C0.3998 0.795342 0.25367 1.01411 0.154163 1.25481C0.0546553 1.49551 0.00372465 1.75342 0.00428678 2.01377C0.00484891 2.27412 0.0568927 2.53181 0.157438 2.77208C0.257984 3.01235 0.405058 3.23048 0.590241 3.41399L8.34088 11.1104L0.623547 18.8402C0.251648 19.2127 0.0433543 19.7172 0.0444893 20.2429C0.0456242 20.7686 0.256095 21.2722 0.629599 21.6431C1.0031 22.014 1.50905 22.2217 2.03613 22.2206C2.56321 22.2195 3.06825 22.0096 3.44015 21.6371L12.5697 12.4928C12.7541 12.3085 12.9002 12.0897 12.9997 11.849C13.0992 11.6083 13.1501 11.3504 13.1496 11.0901C13.149 10.8297 13.097 10.572 12.9964 10.3317C12.8959 10.0915 12.7488 9.87335 12.5636 9.68984L3.39469 0.585087C2.63561 -0.168683 1.3599 -0.165929 0.584189 0.611035Z" fill="#204945"/>
</svg>
