<svg width="23" height="25" viewBox="0 0 23 25" fill="none" xmlns="http://www.w3.org/2000/svg">
<path d="M21.5748 17.0493V11.3605C21.5748 6.47174 21.5748 4.02964 20.0683 2.51059C18.5617 0.992676 16.1362 0.992676 11.2874 0.992676C6.43861 0.992676 4.01306 0.992676 2.50653 2.51059C1 4.0285 1 6.47402 1 11.3605V17.0504C1 20.5785 1 22.3437 1.83899 23.1141C2.23906 23.4822 2.74429 23.7135 3.28266 23.775C4.41084 23.9038 5.72878 22.7414 8.36349 20.4178C9.5294 19.3911 10.1112 18.8771 10.7845 18.7427C11.1159 18.6743 11.4589 18.6743 11.7903 18.7427C12.4647 18.8771 13.0465 19.3911 14.2113 20.4178C16.846 22.7414 18.164 23.9038 19.2921 23.7739C19.8294 23.7135 20.3357 23.4822 20.7358 23.1141C21.5748 22.3437 21.5748 20.5785 21.5748 17.0493Z" stroke="#EA6A12" stroke-width="1.5"/>
</svg>
