<svg width="29" height="22" viewBox="0 0 29 22" fill="none" xmlns="http://www.w3.org/2000/svg">
<path d="M8.96263 4.1945H27.3387C27.6433 4.1945 27.9354 4.07451 28.1508 3.86092C28.3662 3.64734 28.4872 3.35766 28.4872 3.05561C28.4872 2.75356 28.3662 2.46388 28.1508 2.25029C27.9354 2.03671 27.6433 1.91672 27.3387 1.91672H8.96263C8.65802 1.91672 8.3659 2.03671 8.15051 2.25029C7.93512 2.46388 7.81412 2.75356 7.81412 3.05561C7.81412 3.35766 7.93512 3.64734 8.15051 3.86092C8.3659 4.07451 8.65802 4.1945 8.96263 4.1945Z" fill="#EA6A12"/>
<path d="M27.3387 9.88894H8.96263C8.65802 9.88894 8.3659 10.0089 8.15051 10.2225C7.93512 10.4361 7.81412 10.7258 7.81412 11.0278C7.81412 11.3299 7.93512 11.6196 8.15051 11.8331C8.3659 12.0467 8.65802 12.1667 8.96263 12.1667H27.3387C27.6433 12.1667 27.9354 12.0467 28.1508 11.8331C28.3662 11.6196 28.4872 11.3299 28.4872 11.0278C28.4872 10.7258 28.3662 10.4361 28.1508 10.2225C27.9354 10.0089 27.6433 9.88894 27.3387 9.88894Z" fill="#EA6A12"/>
<path d="M27.3387 17.8612H8.96263C8.65802 17.8612 8.3659 17.9812 8.15051 18.1947C7.93512 18.4083 7.81412 18.698 7.81412 19.0001C7.81412 19.3021 7.93512 19.5918 8.15051 19.8054C8.3659 20.019 8.65802 20.1389 8.96263 20.1389H27.3387C27.6433 20.1389 27.9354 20.019 28.1508 19.8054C28.3662 19.5918 28.4872 19.3021 28.4872 19.0001C28.4872 18.698 28.3662 18.4083 28.1508 18.1947C27.9354 17.9812 27.6433 17.8612 27.3387 17.8612Z" fill="#EA6A12"/>
<path d="M3.2201 5.33339C4.48871 5.33339 5.51711 4.31359 5.51711 3.05561C5.51711 1.79763 4.48871 0.777832 3.2201 0.777832C1.9515 0.777832 0.923096 1.79763 0.923096 3.05561C0.923096 4.31359 1.9515 5.33339 3.2201 5.33339Z" fill="#EA6A12"/>
<path d="M3.2201 13.3056C4.48871 13.3056 5.51711 12.2858 5.51711 11.0278C5.51711 9.76985 4.48871 8.75006 3.2201 8.75006C1.9515 8.75006 0.923096 9.76985 0.923096 11.0278C0.923096 12.2858 1.9515 13.3056 3.2201 13.3056Z" fill="#EA6A12"/>
<path d="M3.2201 21.2778C4.48871 21.2778 5.51711 20.258 5.51711 19.0001C5.51711 17.7421 4.48871 16.7223 3.2201 16.7223C1.9515 16.7223 0.923096 17.7421 0.923096 19.0001C0.923096 20.258 1.9515 21.2778 3.2201 21.2778Z" fill="#EA6A12"/>
</svg>
