<svg width="27" height="23" viewBox="0 0 27 24" fill="none" xmlns="http://www.w3.org/2000/svg">
<path d="M26.2177 11.8428L24.2935 1.53027C24.2465 1.27889 24.1485 1.0398 24.0057 0.82768C23.8628 0.615562 23.6781 0.434907 23.4629 0.296824C23.2476 0.158741 23.0064 0.0661484 22.754 0.0247415C22.5017 -0.0166654 22.2435 -0.00601191 21.9954 0.0560469L21.9591 0.0665938L15.8044 1.88183H10.4489L4.29426 0.0724531L4.25793 0.0619062C4.00984 -0.000152633 3.75168 -0.0108061 3.49933 0.0306008C3.24697 0.0720077 3.00575 0.1646 2.7905 0.302683C2.57526 0.440766 2.39053 0.621421 2.24769 0.833539C2.10484 1.04566 2.0069 1.28475 1.95988 1.53612L0.0356638 11.8428C-0.0466216 12.2555 0.0144578 12.684 0.208799 13.0574C0.40314 13.4307 0.719099 13.7265 1.10441 13.8959C1.35122 14.0089 1.61929 14.068 1.89074 14.0693C2.21565 14.0691 2.53455 13.9816 2.81418 13.8162V18.7568C2.81418 20 3.30804 21.1923 4.18712 22.0714C5.06619 22.9505 6.25848 23.4443 7.50168 23.4443H18.7517C19.9949 23.4443 21.1872 22.9505 22.0662 22.0714C22.9453 21.1923 23.4392 20 23.4392 18.7568V13.8174C23.7185 13.9826 24.0369 14.07 24.3614 14.0705C24.6332 14.0698 24.9017 14.011 25.1489 13.8982C25.5347 13.7288 25.851 13.4326 26.0454 13.0588C26.2398 12.6849 26.3006 12.2559 26.2177 11.8428ZM1.87668 12.1943L3.80207 1.88183L8.73215 3.33144L1.87668 12.1943ZM18.7517 21.5693H14.0642V20.0822L15.665 18.4826C15.8409 18.3067 15.9397 18.0681 15.9397 17.8193C15.9397 17.5705 15.8409 17.332 15.665 17.156C15.489 16.9801 15.2505 16.8813 15.0017 16.8813C14.7529 16.8813 14.5143 16.9801 14.3384 17.156L13.1267 18.3689L11.915 17.156C11.739 16.9801 11.5005 16.8813 11.2517 16.8813C11.0029 16.8813 10.7643 16.9801 10.5884 17.156C10.4125 17.332 10.3137 17.5705 10.3137 17.8193C10.3137 18.0681 10.4125 18.3067 10.5884 18.4826L12.1892 20.0822V21.5693H7.50168C6.75576 21.5693 6.04039 21.273 5.51294 20.7456C4.9855 20.2181 4.68918 19.5027 4.68918 18.7568V11.6213L10.7736 3.75683H15.4786L21.5642 11.6213V18.7568C21.5642 19.5027 21.2679 20.2181 20.7404 20.7456C20.213 21.273 19.4976 21.5693 18.7517 21.5693ZM24.3767 12.1943L17.5212 3.33144L22.4513 1.88183L24.3767 12.1943ZM10.3142 13.6006C10.3142 13.8787 10.2317 14.1506 10.0772 14.3818C9.92266 14.6131 9.70304 14.7933 9.44608 14.8998C9.18912 15.0062 8.90637 15.0341 8.63358 14.9798C8.3608 14.9255 8.11023 14.7916 7.91356 14.5949C7.71689 14.3983 7.58296 14.1477 7.5287 13.8749C7.47444 13.6021 7.50229 13.3194 7.60872 13.0624C7.71516 12.8055 7.8954 12.5858 8.12666 12.4313C8.35792 12.2768 8.6298 12.1943 8.90793 12.1943C9.28089 12.1943 9.63858 12.3425 9.9023 12.6062C10.166 12.8699 10.3142 13.2276 10.3142 13.6006ZM18.7517 13.6006C18.7517 13.8787 18.6692 14.1506 18.5147 14.3818C18.3602 14.6131 18.1405 14.7933 17.8836 14.8998C17.6266 15.0062 17.3439 15.0341 17.0711 14.9798C16.7983 14.9255 16.5477 14.7916 16.3511 14.5949C16.1544 14.3983 16.0205 14.1477 15.9662 13.8749C15.9119 13.6021 15.9398 13.3194 16.0462 13.0624C16.1527 12.8055 16.3329 12.5858 16.5642 12.4313C16.7954 12.2768 17.0673 12.1943 17.3454 12.1943C17.7184 12.1943 18.0761 12.3425 18.3398 12.6062C18.6035 12.8699 18.7517 13.2276 18.7517 13.6006Z" fill="#85B6FF"/>
</svg>
