<svg width="21" height="22" viewBox="0 0 21 22" fill="none" xmlns="http://www.w3.org/2000/svg">
<path d="M10.5 12.375C9.85103 12.375 9.21664 12.1734 8.67704 11.7957C8.13744 11.418 7.71687 10.8811 7.46852 10.253C7.22017 9.62486 7.15519 8.93369 7.2818 8.26688C7.40841 7.60007 7.72092 6.98757 8.17981 6.50682C8.6387 6.02608 9.22336 5.69869 9.85986 5.56605C10.4964 5.43342 11.1561 5.50149 11.7557 5.76167C12.3553 6.02184 12.8677 6.46244 13.2283 7.02773C13.5888 7.59302 13.7813 8.25763 13.7813 8.9375C13.7802 9.84885 13.4342 10.7226 12.819 11.367C12.2039 12.0114 11.3699 12.3739 10.5 12.375ZM10.5 6.875C10.1106 6.875 9.72998 6.99597 9.40622 7.2226C9.08246 7.44923 8.83012 7.77134 8.68111 8.14822C8.5321 8.52509 8.49312 8.93979 8.56908 9.33988C8.64505 9.73996 8.83255 10.1075 9.10789 10.3959C9.38322 10.6844 9.73402 10.8808 10.1159 10.9604C10.4978 11.04 10.8937 10.9991 11.2534 10.843C11.6132 10.6869 11.9206 10.4225 12.137 10.0834C12.3533 9.74419 12.4688 9.34543 12.4688 8.9375C12.4682 8.39066 12.2606 7.86637 11.8915 7.4797C11.5224 7.09302 11.022 6.87555 10.5 6.875Z" fill="#8A8A8A"/>
<path d="M10.5 20.625L4.96388 13.7851C4.88695 13.6824 4.81083 13.579 4.7355 13.475C3.79031 12.1697 3.27949 10.5759 3.28125 8.9375C3.28125 6.9318 4.0418 5.00825 5.39558 3.59001C6.74936 2.17176 8.58547 1.375 10.5 1.375C12.4145 1.375 14.2507 2.17176 15.6044 3.59001C16.9582 5.00825 17.7188 6.9318 17.7188 8.9375C17.7203 10.5751 17.2097 12.1681 16.2652 13.4729L16.2645 13.475C16.2645 13.475 16.0676 13.7459 16.0381 13.7823L10.5 20.625ZM5.78354 12.6466C5.78354 12.6466 5.93644 12.8583 5.97122 12.9037L10.5 18.4993L15.0347 12.8961C15.0636 12.8583 15.2171 12.6452 15.2178 12.6445C15.9903 11.5783 16.4078 10.2761 16.4063 8.9375C16.4063 7.29647 15.784 5.72266 14.6764 4.56228C13.5687 3.4019 12.0664 2.75 10.5 2.75C8.93357 2.75 7.43129 3.4019 6.32365 4.56228C5.21602 5.72266 4.59375 7.29647 4.59375 8.9375C4.59214 10.277 5.01011 11.58 5.78354 12.6466Z" fill="#8A8A8A"/>
</svg>
