<svg width="34" height="31" viewBox="0 0 34 31" fill="none" xmlns="http://www.w3.org/2000/svg">
<path d="M17 0C26.3891 0 34 6.93935 34 15.5C34 24.0606 26.3891 31 17 31C7.6109 31 0 24.0606 0 15.5C0 6.93935 7.6109 0 17 0ZM19.55 7.75H15.3C14.3983 7.75 13.5335 8.07661 12.8958 8.65797C12.2582 9.23933 11.9 10.0278 11.9 10.85V21.7C11.9 22.1111 12.0791 22.5053 12.3979 22.796C12.7167 23.0867 13.1491 23.25 13.6 23.25C14.0509 23.25 14.4833 23.0867 14.8021 22.796C15.1209 22.5053 15.3 22.1111 15.3 21.7V18.6H19.55C21.128 18.6 22.6414 18.0284 23.7573 17.0111C24.8731 15.9937 25.5 14.6138 25.5 13.175C25.5 11.7362 24.8731 10.3563 23.7573 9.33895C22.6414 8.32156 21.128 7.75 19.55 7.75ZM19.55 10.85C20.2263 10.85 20.8749 11.095 21.3531 11.531C21.8313 11.967 22.1 12.5584 22.1 13.175C22.1 13.7916 21.8313 14.383 21.3531 14.819C20.8749 15.255 20.2263 15.5 19.55 15.5H15.3V10.85H19.55Z" fill="#FB9F3E"/>
</svg>
