<svg width="30" height="23" viewBox="0 0 30 30" fill="none" xmlns="http://www.w3.org/2000/svg">
<path d="M27.5 7.5H2.5M27.5 7.5C27.5 6.335 27.5 5.7525 27.31 5.29375C27.1844 4.99023 27.0001 4.71444 26.7678 4.48215C26.5356 4.24987 26.2598 4.06564 25.9562 3.94C25.4975 3.75 24.915 3.75 23.75 3.75H6.25C5.085 3.75 4.5025 3.75 4.04375 3.94C3.74023 4.06564 3.46444 4.24987 3.23215 4.48215C2.99987 4.71444 2.81564 4.99023 2.69 5.29375C2.5 5.7525 2.5 6.335 2.5 7.5M27.5 7.5V26.25M2.5 7.5V26.25M20 23.75V26.25M10 23.75V26.25M9.375 17.5L9.67875 16.2875C10.1325 14.4687 10.36 13.5587 11.0388 13.03C11.7163 12.5 12.6538 12.5 14.5288 12.5H15.4712C17.3462 12.5 18.2838 12.5 18.9613 13.03C19.64 13.5587 19.8675 14.4675 20.3213 16.2875L20.625 17.5M10.625 20.6125V20.625M19.375 20.6125V20.625M21.25 17.5H8.75C8.41848 17.5 8.10054 17.6317 7.86612 17.8661C7.6317 18.1005 7.5 18.4185 7.5 18.75V22.5C7.5 22.8315 7.6317 23.1495 7.86612 23.3839C8.10054 23.6183 8.41848 23.75 8.75 23.75H21.25C21.5815 23.75 21.8995 23.6183 22.1339 23.3839C22.3683 23.1495 22.5 22.8315 22.5 22.5V18.75C22.5 18.4185 22.3683 18.1005 22.1339 17.8661C21.8995 17.6317 21.5815 17.5 21.25 17.5Z" stroke="#4ECB71" stroke-width="1.5" stroke-linecap="round" stroke-linejoin="round"/>
</svg>
