<svg width="20" height="20" viewBox="0 0 20 20" fill="none" xmlns="http://www.w3.org/2000/svg">
<path d="M19.375 9.49843C19.3731 9.76253 19.2863 10.019 19.1275 10.23C18.9687 10.441 18.7462 10.5954 18.4929 10.6703L18.4773 10.675L12.3836 12.3812L10.6773 18.475L10.6726 18.4906C10.5976 18.7438 10.4432 18.9662 10.2323 19.125C10.0213 19.2838 9.76483 19.3706 9.50076 19.3726H9.47732C9.21837 19.3751 8.96524 19.2958 8.75389 19.1462C8.54254 18.9965 8.38372 18.7841 8.29998 18.5391L3.20311 4.79765C3.20146 4.7936 3.20015 4.78941 3.1992 4.78515C3.12303 4.56392 3.11048 4.32576 3.16297 4.09776C3.21546 3.86975 3.3309 3.66105 3.49613 3.49541C3.66137 3.32976 3.86978 3.21382 4.09766 3.16076C4.32553 3.10771 4.56373 3.11968 4.78514 3.1953L4.79764 3.19921L18.5414 8.29765C18.7902 8.38271 19.0054 8.54513 19.1553 8.76116C19.3053 8.9772 19.3823 9.23554 19.375 9.49843Z" fill="#EA6A12"/>
</svg>
