<svg width="100" height="100" viewBox="0 0 100 100" fill="none" xmlns="http://www.w3.org/2000/svg">
<g clip-path="url(#clip0_481_671)">
<path d="M56.2499 62.5V56.25H59.3749V34.375H56.2499V28.125H68.7499V34.375H65.6249V56.25H68.7499V62.5H56.2499ZM45.3124 62.5H51.5624L40.6249 28.125H31.2499L20.3218 62.5H26.5718L28.4499 56.25H43.3812L45.3124 62.5ZM30.3312 50L35.4187 33.0906L36.2187 33.0813L41.4499 50H30.3312ZM81.928 65.625L76.3437 76.9406L63.8562 78.7531L72.8937 87.5656L70.7593 100L81.928 94.1281L93.0968 100L90.9624 87.5625L99.9999 78.7562L87.5124 76.9406L81.928 65.625Z" fill="#FFD233"/>
<path d="M53.125 93.75H0V0H93.75V53.125H87.5V6.25H6.25V87.5H53.125V93.75Z" fill="#FFD233"/>
</g>
<defs>
<clipPath id="clip0_481_671">
<rect width="100" height="100" fill="white"/>
</clipPath>
</defs>
</svg>
