<svg width="17" height="14" viewBox="0 0 17 14" fill="none" xmlns="http://www.w3.org/2000/svg">
<path d="M0 14V1.4C0 1.015 0.1666 0.685533 0.4998 0.4116C0.833 0.137667 1.23307 0.000466667 1.7 0H15.3C15.7675 0 16.1678 0.1372 16.501 0.4116C16.8342 0.686 17.0006 1.01547 17 1.4V9.8C17 10.185 16.8337 10.5147 16.501 10.7891C16.1684 11.0635 15.7681 11.2005 15.3 11.2H3.4L0 14ZM6.01375 8.575L8.5 7.3325L10.9862 8.575L10.3275 6.2475L12.5375 4.6725L9.62625 4.48L8.5 2.275L7.37375 4.48L4.4625 4.6725L6.6725 6.2475L6.01375 8.575Z" fill="#85B6FF"/>
</svg>
