<svg width="23" height="26" viewBox="0 0 23 26" fill="none" xmlns="http://www.w3.org/2000/svg">
<path d="M21.5748 17.7587V12.07C21.5748 7.18122 21.5748 4.73911 20.0683 3.22006C18.5617 1.70215 16.1362 1.70215 11.2874 1.70215C6.43861 1.70215 4.01306 1.70215 2.50653 3.22006C1 4.73797 1 7.18349 1 12.07V17.7599C1 21.288 1 23.0532 1.83899 23.8235C2.23906 24.1916 2.74429 24.423 3.28266 24.4845C4.41084 24.6133 5.72878 23.4509 8.36349 21.1273C9.5294 20.1006 10.1112 19.5866 10.7845 19.4521C11.1159 19.3838 11.4589 19.3838 11.7903 19.4521C12.4647 19.5866 13.0465 20.1006 14.2113 21.1273C16.846 23.4509 18.164 24.6133 19.2921 24.4834C19.8294 24.423 20.3357 24.1916 20.7358 23.8235C21.5748 23.0532 21.5748 21.288 21.5748 17.7587Z" fill="#EA6A12" stroke="#EA6A12" stroke-width="1.5"/>
</svg>
