<svg width="22" height="20" viewBox="0 0 22 20" fill="none" xmlns="http://www.w3.org/2000/svg">
<path d="M11.4125 0C5.6135 0 0.912476 4.47717 0.912476 10C0.912476 15.5228 5.6135 20 11.4125 20C17.2115 20 21.9125 15.5228 21.9125 10C21.9125 4.47717 17.2115 0 11.4125 0ZM17.8471 16.1283C16.2516 17.6433 14.1209 18.5383 11.8703 18.6389C9.61975 18.7395 7.41043 18.0386 5.67288 16.6725C3.93533 15.3065 2.79402 13.3733 2.47133 11.2497C2.14864 9.12602 2.66769 6.964 3.92734 5.18491C5.18699 3.40581 7.09701 2.13708 9.28523 1.62593C11.4734 1.11478 13.7831 1.39782 15.7642 2.41992C17.7452 3.44201 19.2558 5.12993 20.0015 7.15478C20.7472 9.17963 20.6746 11.3964 19.7979 13.373C19.341 14.403 18.6785 15.3388 17.8471 16.1283Z" fill="#FFBC14" fill-opacity="0.59"/>
<path d="M6.86243 7.6665H8.61243V9.33317H6.86243V7.6665ZM14.2124 7.6665H15.9624V9.33317H14.2124V7.6665ZM11.4124 15.3332C12.6192 15.3332 13.7765 14.8766 14.6298 14.064C15.4831 13.2513 15.9624 12.1491 15.9624 10.9998H6.86243C6.86243 12.1491 7.3418 13.2513 8.19509 14.064C9.04838 14.8766 10.2057 15.3332 11.4124 15.3332Z" fill="#FFBC14" fill-opacity="0.59"/>
</svg>
